<svg id="Layer_1" data-name="Layer 1" xmlns="http://www.w3.org/2000/svg" xmlns:xlink="http://www.w3.org/1999/xlink" viewBox="0 0 40 40">
  <defs>
    <style>
      .cls-1, .cls-3 {
        fill: none;
      }

      .cls-2 {
        clip-path: url(#clip-path);
      }

      .cls-3 {
        stroke: #a2a9ad;
        stroke-miterlimit: 10;
        stroke-width: 2px;
      }

      .cls-4 {
        fill: #a2a9ad;
      }
    </style>
    <clipPath id="clip-path">
      <rect class="cls-1" x="1" y="1" width="38" height="38"/>
    </clipPath>
  </defs>
  <g class="cls-2">
    <g>
      <line class="cls-3" x1="21" y1="20" x2="53" y2="20"/>
      <line class="cls-3" x1="-19" y1="20" x2="13" y2="20"/>
      <rect class="cls-4" x="15" y="17" width="2" height="2"/>
      <rect class="cls-4" x="17" y="19" width="2" height="2"/>
      <rect class="cls-4" x="15" y="19" width="2" height="2"/>
      <rect class="cls-4" x="13" y="15" width="2" height="2"/>
      <rect class="cls-4" x="11" y="13" width="2" height="2"/>
      <rect class="cls-4" x="9" y="11" width="2" height="2"/>
      <rect class="cls-4" x="7" y="9" width="2" height="2"/>
      <rect class="cls-4" x="5" y="7" width="2" height="2"/>
      <rect class="cls-4" x="13" y="17" width="2" height="2"/>
      <rect class="cls-4" x="11" y="15" width="2" height="2"/>
      <rect class="cls-4" x="9" y="13" width="2" height="2"/>
      <rect class="cls-4" x="7" y="11" width="2" height="2"/>
      <rect class="cls-4" x="5" y="9" width="2" height="2"/>
      <rect class="cls-4" x="3" y="7" width="2" height="2"/>
      <rect class="cls-4" x="15" y="21" width="2" height="2"/>
      <rect class="cls-4" x="13" y="23" width="2" height="2"/>
      <rect class="cls-4" x="11" y="25" width="2" height="2"/>
      <rect class="cls-4" x="9" y="27" width="2" height="2"/>
      <rect class="cls-4" x="7" y="29" width="2" height="2"/>
      <rect class="cls-4" x="5" y="31" width="2" height="2"/>
      <rect class="cls-4" x="13" y="21" width="2" height="2"/>
      <rect class="cls-4" x="11" y="23" width="2" height="2"/>
      <rect class="cls-4" x="9" y="25" width="2" height="2"/>
      <rect class="cls-4" x="7" y="27" width="2" height="2"/>
      <rect class="cls-4" x="5" y="29" width="2" height="2"/>
      <rect class="cls-4" x="3" y="31" width="2" height="2"/>
    </g>
  </g>
</svg>
