<svg id="Layer_1" data-name="Layer 1" xmlns="http://www.w3.org/2000/svg" xmlns:xlink="http://www.w3.org/1999/xlink" viewBox="0 0 40 40">
  <defs>
    <style>
      .cls-1, .cls-2 {
        fill: none;
      }

      .cls-2 {
        stroke: #a2a9ad;
        stroke-miterlimit: 10;
        stroke-width: 2px;
      }

      .cls-3 {
        fill: #a2a9ad;
      }

      .cls-4 {
        clip-path: url(#clip-path);
      }
    </style>
    <clipPath id="clip-path">
      <rect class="cls-1" x="51" y="1" width="38" height="38"/>
    </clipPath>
  </defs>
  <line class="cls-2" x1="1" y1="20" x2="33" y2="20"/>
  <rect class="cls-3" x="35" y="17" width="2" height="2"/>
  <rect class="cls-3" x="37" y="19" width="2" height="2"/>
  <rect class="cls-3" x="35" y="19" width="2" height="2"/>
  <rect class="cls-3" x="33" y="15" width="2" height="2"/>
  <rect class="cls-3" x="31" y="13" width="2" height="2"/>
  <rect class="cls-3" x="29" y="11" width="2" height="2"/>
  <rect class="cls-3" x="27" y="9" width="2" height="2"/>
  <rect class="cls-3" x="25" y="7" width="2" height="2"/>
  <rect class="cls-3" x="33" y="17" width="2" height="2"/>
  <rect class="cls-3" x="31" y="15" width="2" height="2"/>
  <rect class="cls-3" x="29" y="13" width="2" height="2"/>
  <rect class="cls-3" x="27" y="11" width="2" height="2"/>
  <rect class="cls-3" x="25" y="9" width="2" height="2"/>
  <rect class="cls-3" x="23" y="7" width="2" height="2"/>
  <rect class="cls-3" x="35" y="21" width="2" height="2"/>
  <rect class="cls-3" x="33" y="23" width="2" height="2"/>
  <rect class="cls-3" x="31" y="25" width="2" height="2"/>
  <rect class="cls-3" x="29" y="27" width="2" height="2"/>
  <rect class="cls-3" x="27" y="29" width="2" height="2"/>
  <rect class="cls-3" x="25" y="31" width="2" height="2"/>
  <rect class="cls-3" x="33" y="21" width="2" height="2"/>
  <rect class="cls-3" x="31" y="23" width="2" height="2"/>
  <rect class="cls-3" x="29" y="25" width="2" height="2"/>
  <rect class="cls-3" x="27" y="27" width="2" height="2"/>
  <rect class="cls-3" x="25" y="29" width="2" height="2"/>
  <rect class="cls-3" x="23" y="31" width="2" height="2"/>
  <g class="cls-4">
    <line class="cls-2" x1="21" y1="20" x2="53" y2="20"/>
  </g>
</svg>
