<?xml version="1.0" encoding="utf-8"?>
<!-- Generator: Adobe Illustrator 25.2.1, SVG Export Plug-In . SVG Version: 6.00 Build 0)  -->
<svg version="1.1" id="Layer_1" xmlns="http://www.w3.org/2000/svg" xmlns:xlink="http://www.w3.org/1999/xlink" x="0px" y="0px"
	 viewBox="0 0 20 20" style="enable-background:new 0 0 20 20;" xml:space="preserve">
<style type="text/css">
	.st0{fill:#A0A7AB;}
</style>
<rect x="17" y="1" class="st0" width="2" height="2"/>
<rect x="1" y="1" class="st0" width="2" height="2"/>
<rect x="17" y="16.9" class="st0" width="2" height="2"/>
<rect x="1" y="16.9" class="st0" width="2" height="2"/>
<rect x="9" y="9" class="st0" width="2" height="2"/>
<g>
	<rect x="9" y="1.1" class="st0" width="2" height="5.9"/>
	<polygon class="st0" points="7,9 5,9 3,9 1,9 1,11 3,11 5,11 7,11 	"/>
	<polygon class="st0" points="9,13 9,14.9 9,15 9,16.9 9,18.9 11,18.9 11,16.9 11,15 11,14.9 11,13 	"/>
	<polygon class="st0" points="17,9 15,9 13,9 13,11 15,11 17,11 19,11 19,9 	"/>
</g>
</svg>
