<?xml version="1.0" encoding="utf-8"?>
<!-- Generator: Adobe Illustrator 25.2.1, SVG Export Plug-In . SVG Version: 6.00 Build 0)  -->
<svg version="1.1" id="Layer_1" xmlns="http://www.w3.org/2000/svg" xmlns:xlink="http://www.w3.org/1999/xlink" x="0px" y="0px"
	 viewBox="0 0 20 20" style="enable-background:new 0 0 20 20;" xml:space="preserve">
<style type="text/css">
	.st0{fill:#A0A7AB;}
</style>
<g>
	<path class="st0" d="M10.5,1.5V3v2v0.5H11h1.5V7v0.5H13h1.5V9v0.5H15h2h1.5v1H17h-2h-0.5V11v1.5H13h-0.5V13v1.5H11h-0.5V15v2v1.5
		h-1V17v-2v-0.5H9H7.5V13v-0.5H7H5.5V11v-0.5H5H3H1.5v-1H3h2h0.5V9V7.5H7h0.5V7V5.5H9h0.5V5V3V1.5H10.5 M11,1H9v2v2h0H7v2H5v2H3H1v2
		h2h2v2h2v2h2v2v2h2v-2v-2h2v-2h2v-2h2h2V9h-2h-2V7h-2V5h-2V3V1L11,1z"/>
</g>
</svg>
