<svg id="Layer_1" data-name="Layer 1" xmlns="http://www.w3.org/2000/svg" viewBox="0 0 20 20">
  <g>
    <rect x="15" y="3.02" width="2" height="2"/>
    <rect x="3" y="3.02" width="2" height="2"/>
    <rect x="15" y="14.94" width="2" height="2"/>
    <rect x="3" y="14.94" width="2" height="2"/>
    <polygon points="17 8.99 15 8.99 13 8.99 13 6.99 11 6.99 11 5.02 11 3.06 11 3.02 11 1.06 9 1.06 9 3.02 9 3.06 9 5.02 9 6.99 7 6.99 7 8.99 5 8.99 3 8.99 1 8.99 1 10.99 3 10.99 5 10.99 7 10.99 7 12.99 9 12.99 9 14.94 9 14.99 9 16.94 9 18.94 11 18.94 11 16.94 11 14.99 11 14.94 11 12.99 13 12.99 13 10.99 15 10.99 17 10.99 19 10.99 19 8.99 17 8.99"/>
  </g>
</svg>
