<?xml version="1.0" encoding="utf-8"?>
<!-- Generator: Adobe Illustrator 25.2.1, SVG Export Plug-In . SVG Version: 6.00 Build 0)  -->
<svg version="1.1" id="Layer_1" xmlns="http://www.w3.org/2000/svg" xmlns:xlink="http://www.w3.org/1999/xlink" x="0px" y="0px"
	 viewBox="0 0 20 20" style="enable-background:new 0 0 20 20;" xml:space="preserve">
<style type="text/css">
	.st0{fill:#A0A7AB;}
</style>
<polygon class="st0" points="17,9 15,9 15,7 13,7 13,5 11,5 11,3 11,1 9,1 9,3 9,5 9,5 7,5 7,7 5,7 5,9 3,9 1,9 1,11 3,11 5,11 
	5,13 7,13 7,15 9,15 9,17 9,19 11,19 11,17 11,15 13,15 13,13 15,13 15,11 17,11 19,11 19,9 "/>
</svg>
