<?xml version="1.0" encoding="utf-8"?>
<!-- Generator: Adobe Illustrator 25.2.1, SVG Export Plug-In . SVG Version: 6.00 Build 0)  -->
<svg version="1.1" id="Layer_1" xmlns="http://www.w3.org/2000/svg" xmlns:xlink="http://www.w3.org/1999/xlink" x="0px" y="0px"
	 viewBox="0 0 20 20" style="enable-background:new 0 0 20 20;" xml:space="preserve">
<style type="text/css">
	.st0{fill:#A0A7AB;}
</style>
<path class="st0" d="M7,13H5v2h2V13z M9,11H7v2h2V11z M11,9H9v2h2V9z M13,7h-2v2h2V7z M15,5h-2v2h2V5z M7,7V5H5v2H7z M9,9V7H7v2H9z
	 M11,11V9H9v2H11z M13,13v-2h-2v2H13z M15,15v-2h-2v2H15z M8,17v2H3H1v-2v-5h2v5H8z M19,12v5v2h-2h-5v-2h5v-5H19z M8,3H3v5H1V3V1h2
	h5V3z M19,1v2v5h-2V3h-5V1h5H19z"/>
</svg>
