<?xml version="1.0" encoding="utf-8"?>
<!-- Generator: Adobe Illustrator 25.2.1, SVG Export Plug-In . SVG Version: 6.00 Build 0)  -->
<svg version="1.1" id="Layer_1" xmlns="http://www.w3.org/2000/svg" xmlns:xlink="http://www.w3.org/1999/xlink" x="0px" y="0px"
	 viewBox="0 0 645.7 183.4" style="enable-background:new 0 0 645.7 183.4;" xml:space="preserve">
<style type="text/css">
	.st0{fill:#FFFFFF;}
</style>
<g>
	<path class="st0" d="M527.6,126.9c-9.5,0.4-12.6,2.4-12.6,4.7c0,2.6,7.8,4,21,4.5c15.7-0.2,23.5-3.3,23.5-9.2
		c0-4.5-11.6-8.9-34.8-13c-6.4-1.3-10.8-3-13.1-5.1c-2.3-2.1-3.5-4.3-3.6-6.6c0-5.4,5-10.7,17.2-13.9c8.8-2.6,37.2-3.1,41.1,2.8
		c3.2,4.8-0.9,9-7.7,10.8c-4.6,1-9.2,1.4-13.9,1.1c0,0,12.3-3.4,12-5.8c-0.1-0.8-1.5-1.5-5.3-2c-5.6-0.7-11.2-0.9-16.8-0.5
		c-9.2,0.7-14.3,3.3-14.3,6.4c0,4.3,10.2,6.1,31.2,10.2c13.3,2.8,19.9,7.8,19.9,15.2c0,8.4-8.2,14.3-24.6,17.7
		c-2.8,0.5-5.5,0.7-8.3,0.7c-15,0-26.6-2.6-31.5-10.7c-0.6-1.2-1-2.5-1.1-3.8c0-4.7,7.2-10.3,25-8.6c0,0,7.8,2.4,16.5,5L527.6,126.9
		z"/>
	<path class="st0" d="M481.4,142.2c-6.3-0.6-22.2-3.6-30.2-4.9c-9.3,23.5-24.2,35.3-44.6,35.3c-8.4,0.1-16.5-3.2-22.4-9.2
		c-5.4-5.2-8-10.3-8-15.1c0-8,5.7-14.2,17-18.6c9.7-3.8,21.8-5.7,36.1-5.7c3.7,0.1,7.4,0.3,11.1,0.8c4.2-12.5,6.4-25.6,6.4-38.8
		c-1.1-38.3-5.4-57.5-12.9-57.5c-3.7,0-8.1,7.1-13,21.5c-3.5,12.2-6,32.8-6,32.8l-4.3,26.3c-2.5-33.2-2.5-26.4-4.1-46.1
		c0,0-0.4-44,27.7-46.7c4.3-0.5,8.5,1,11.6,3.9c2,1.8,4.1,5.1,6.3,10c4.8,10.6,7.3,30.3,7.3,59.1c0.1,13.2-1.6,26.4-5,39.2
		L481.4,142.2z M437.4,135c-4.1-0.5-8.3-0.7-12.5-0.7c-14.4,0-24.7,1.3-30.8,3.9c-5.7,2.4-8.5,6.3-8.5,11.7c0,2.5,1.7,5.5,5,9
		c4.2,4.5,10.1,7,16.2,6.8C420.3,165.7,430.5,155.5,437.4,135L437.4,135z"/>
	<path class="st0" d="M68.5,132.4L62,144.8c-2.4-0.6-4.9-0.9-7.4-0.9c0,0-24.5,0.7-29.9,0.7l-11.1-17.4l7,4.8
		c3.6,1.9,7.5,3,11.6,3.1l0.1-0.3c2-25.7,3.1-45.3,3.1-58.8c-0.1-13.4-1-26.8-2.7-40.1l-4.4,0.2c-3.5,0.1-7-1-9.8-3.2
		c-2.7-2.2-4.3-5.6-4.2-9.1c0-5,4.4-7.4,13.1-7.4c6.9,0,11.9,2.1,15.2,6.2l23.7-7C56,25.8,54.5,25.7,46.4,33.5c2,14.1,3,28.4,3,42.6
		c0,4.9-0.9,24-2.8,57.4c6.5-0.8,11-1.2,13.5-1.3C62.2,132.3,68.5,132.4,68.5,132.4z"/>
	<path class="st0" d="M318,79.9c11.3,0,19.4,7.6,24.3,22.8c0.8,3.4,1.2,6.9,1.2,10.4c0,15.7-7,25.9-21,30.6
		c-4.4,1.1-8.9,1.3-13.4,0.7c-17.9-1.8-26.9-11.2-26.9-28.2c0-13,6.6-22,19.6-27C305.1,83,310.5,79.9,318,79.9z M310.4,97.6
		c-1.1,3.7-8,27.4-8,27.4s0.4-25.1,0-28c-5,2.3-7.6,8.1-7.6,17.3c0.5,15,7.1,22.6,19.6,22.6c11.6,0,17.8-7.4,18.5-22.1
		c0-11.7-3.9-19.7-10.9-21.9c-2.2-0.8-4.5-0.9-6.7-0.2C312.9,93.2,311.2,94.9,310.4,97.6z"/>
	<path class="st0" d="M627.2,144.5c0,0-4.4-25.9-5.7-34.3c-1.9,11.5-6.3,22.3-11.9,27.9c-4.7,4.3-9.2,6.5-13.6,6.5h-0.2
		c-6.8-0.2-11.6-2.8-14.4-8c-2.2-4.5-3-10.3-2.4-17.3c1.9-14.4,10-29.3,10-29.3l20.8-21c0,0-10.5,20.2-13.5,27.2
		c-3.1,7.5-4.1,13.2-5.1,19c-0.5,2.6-0.8,5.3-0.8,8c0.6,6.8,2.9,10.1,6.9,10.1c6.7,0,13.2-11.1,19.5-33.4c1.6-6.9,3.5-10.4,5.7-10.4
		c1.1,0,2.1,1.4,3.2,4.2c2.4,8.9,5,21.2,6.5,29.7L627.2,144.5z"/>
	<path class="st0" d="M160.1,171.9l14-30.9c12,2.5,21.9,3.7,29.7,3.7c13.4,0.1,26.8-2,39.5-6.3c20.7-8.2,31-21.4,31-39.6
		c0-18.6-13.4-36-40.3-52.2C203.3,29,168.9,18.8,133.6,16.7h-0.9c-2.1-0.1-4.1-0.2-6.2-0.3c-2.4-0.1-4.9-0.1-7.4-0.1
		c-7,0.3-11.3,0.6-14.3,1.3C97.6,18.8,94,20.8,94,23.4c0,4.2-0.1,9.2,48,9.5l-40.8-8.8c0,0,2.6-0.3,7.7-0.4c2.1-0.1,4.2,0,6.2,0.1h2
		l4.2,0.2l2.3,0.1c1.7,0.1,3.5,0.2,5.2,0.4l3.6,0.3c0.6,0.1,1.2,0.1,1.8,0.2c4.6,0.4,9.1,1,13.5,1.7c22.5,3.5,44.4,10.6,64.6,21
		c29.8,17,44.6,33.9,44.6,50.8c0.1,4.3-0.9,8.6-2.8,12.5c-7.6,14.6-25.1,22.4-52.8,23.4c-11.5-0.5-20.4-1.5-26.5-3
		c0-9.8,0.1-22.7,0.4-38.8h5.6c16.1,0,27.8,0.9,35.1,2.6c0.9,0.3-37.7,17.2-37.7,17.2c1.3,0.2,27-4.5,38.1-9.3
		c7.3-3.7,10.9-6,10.9-10.5c0.1-0.8-0.2-1.6-0.7-2.2c-8.4-7.7-24.2-11.6-47.4-11.6H175v-44L162.5,79c-8.2,0.9-16.4,2.7-24.3,5.3
		c-12,5.4-18,11.8-18,19.4c0,12.7,13.3,23.8,39.9,33.3V171.9 M160.5,127.3c-22.1-7.7-33.2-15.3-33.2-22.9c0-6.1,11.3-9.9,34-11.5
		C160.7,106,160.4,117.5,160.5,127.3L160.5,127.3z"/>
	<path class="st0" d="M494.9,23.9c0,27.5-27.5,27.5-27.5,27.5c27.5,0,27.5,27.5,27.5,27.5c0-27.5,27.5-27.5,27.5-27.5
		C494.9,51.4,494.9,23.9,494.9,23.9z"/>
	<polygon class="st0" points="494.8,82.6 494.8,134.3 481.4,154.6 481.4,101.5 	"/>
</g>
</svg>
