<?xml version="1.0" encoding="utf-8"?>
<!-- Generator: Adobe Illustrator 25.2.1, SVG Export Plug-In . SVG Version: 6.00 Build 0)  -->
<svg version="1.1" id="Layer_1" xmlns="http://www.w3.org/2000/svg" xmlns:xlink="http://www.w3.org/1999/xlink" x="0px" y="0px"
	 viewBox="0 0 20 20" style="enable-background:new 0 0 20 20;" xml:space="preserve">
<style type="text/css">
	.st0{fill:#A0A7AB;}
</style>
<polygon class="st0" points="17,9 17,8 15,8 15,7 13,7 13,6 11,6 11,5 9,5 9,4 7,4 7,3 5,3 5,2 3,2 3,1 1,1 1,19 3,19 3,18 5,18 
	5,17 7,17 7,16 9,16 9,15 11,15 11,14 13,14 13,13 15,13 15,12 17,12 17,11 19,11 19,9 "/>
</svg>
