<?xml version="1.0" standalone="no"?>
<!DOCTYPE svg PUBLIC "-//W3C//DTD SVG 1.1//EN" "http://www.w3.org/Graphics/SVG/1.1/DTD/svg11.dtd" >
<svg xmlns="http://www.w3.org/2000/svg" xmlns:xlink="http://www.w3.org/1999/xlink" version="1.1">
<metadata></metadata>
<defs>
<font id="ibm_plex_monolight_italic" horiz-adv-x="1228" >
<font-face units-per-em="2048" ascent="1597" descent="-451" />
<missing-glyph horiz-adv-x="500" />
<glyph horiz-adv-x="0" />
<glyph horiz-adv-x="0" />
<glyph unicode="&#xd;" />
<glyph unicode=" " />
<glyph unicode="!" d="M422 59q0 20 6 52q8 43 39 68.5t92 25.5q57 0 81 -20.5t24 -53.5q0 -20 -7 -51q-8 -43 -39 -68.5t-92 -25.5q-57 0 -80.5 20.5t-23.5 52.5zM573 432l50 518l79 480h125l-79 -480l-125 -518h-50z" />
<glyph unicode="&#x22;" d="M473 971l90 545h113l-93 -545h-110zM795 971l90 545h113l-93 -545h-110z" />
<glyph unicode="#" d="M31 463l16 94h307l107 315h-289l16 95h306l157 463h109l-488 -1430h-108l158 463h-291zM532 0l488 1430h108l-157 -463h291l-17 -95h-307l-107 -315h289l-16 -94h-305l-158 -463h-109z" />
<glyph unicode="$" d="M57 221l93 72q59 -92 137 -144.5t200 -64.5l101 604l-47 12q-315 70 -316 342q0 96 35 172t98.5 129.5t151.5 81t195 29.5h12l35 207h90l-37 -211q147 -16 237.5 -74.5t139.5 -144.5l-88 -64q-51 80 -124 124t-182 55l-96 -570l62 -12q166 -39 241.5 -125t75.5 -217 q0 -100 -35 -181t-100.5 -139.5t-157.5 -91.5t-207 -35h-10l-35 -206h-90l35 211q-154 16 -254 80.5t-160 160.5zM348 1049q0 -104 58.5 -161t177.5 -85l24 -6l90 553h-10q-158 -6 -249 -83t-91 -218zM578 82h10q168 8 264 95.5t96 234.5q0 102 -57 161.5t-191 88.5l-26 6z " />
<glyph unicode="%" d="M-41 0l442 614h109l-444 -614h-107zM143 1024q0 104 29 184t76 134.5t110.5 83t133.5 28.5q113 0 183 -70.5t70 -205.5q0 -104 -28.5 -184.5t-75.5 -134.5t-110.5 -82.5t-133.5 -28.5q-113 0 -183.5 70.5t-70.5 205.5zM240 1004q0 -90 43.5 -133.5t117.5 -43.5 q90 0 149.5 56.5t78.5 169.5q6 37 10 61.5t6 39.5t3 25.5t1 18.5q0 90 -44 133t-118 43q-90 0 -149 -56t-78 -169q-6 -37 -10 -61.5t-6 -40t-3 -25.5t-1 -18zM549 252q0 104 28.5 184t75.5 134.5t110.5 83t133.5 28.5q113 0 183.5 -70.5t70.5 -205.5q0 -104 -28.5 -184.5 t-76 -134.5t-110.5 -83t-133 -29q-113 0 -183.5 71t-70.5 206zM645 231q0 -90 44 -133t118 -43q90 0 149.5 56.5t77.5 169.5q6 37 10.5 61.5t6.5 39.5t3 25.5t1 18.5q0 90 -44 133t-118 43q-90 0 -149.5 -56.5t-77.5 -168.5q-6 -37 -10.5 -61.5t-6.5 -40t-3 -25.5t-1 -19z M782 815l445 615h108l-444 -615h-109z" />
<glyph unicode="&#x26;" d="M12 336q0 84 19.5 161.5t65.5 139t122 102.5t189 52q-29 51 -47.5 93t-31 77.5t-17.5 69.5t-5 69q0 86 27.5 152.5t75 110.5t113 67.5t141.5 23.5q141 0 234 -82t93 -246q0 -102 -28.5 -181t-81 -134t-126 -90t-161.5 -51l332 -590h24l174 278l80 -43l-119 -206 q-41 -72 -72.5 -103t-76.5 -31q-41 0 -71.5 18.5t-59.5 74.5l-115 215h-8q-14 -90 -47 -148.5t-78 -94.5t-99.5 -50.5t-111.5 -14.5q-80 0 -142.5 28t-105.5 76t-64.5 113.5t-21.5 143.5zM131 340q0 -127 57 -195.5t174 -68.5q111 0 188 64.5t101 199.5l-211 389 q-78 -10 -130 -33.5t-86 -57.5t-52 -77t-27 -92q-10 -49 -12 -78t-2 -51zM422 1102q0 -33 5 -65.5t17.5 -70.5t34 -83t53.5 -101l31 -53q117 27 191.5 85t99.5 161q14 53 18.5 89t4.5 58q0 123 -61 179.5t-161 56.5t-166.5 -59.5t-66.5 -196.5z" />
<glyph unicode="'" d="M633 971l90 545h113l-93 -545h-110z" />
<glyph unicode="(" d="M446 455q0 180 49.5 346t130.5 308t186.5 256t219.5 191h127q-102 -70 -196.5 -159.5t-172 -196t-132 -226.5t-76.5 -249l-21 -135q-8 -41 -11 -81t-3 -81q0 -221 85 -399.5t220 -311.5h-113q-61 59 -114.5 137t-93 172.5t-62.5 202t-23 226.5z" />
<glyph unicode=")" d="M109 -283q102 70 196 160t172 196.5t132.5 226.5t76.5 249l21 135q8 41 11 81t3 81q0 221 -85 399t-220 311h112q61 -59 114.5 -137t93.5 -172t62.5 -201.5t22.5 -226.5q0 -180 -49 -346t-130 -308t-187.5 -256t-218.5 -192h-127z" />
<glyph unicode="*" d="M121 702l45 89l416 -140l80 471h106l-80 -469l455 140l16 -97l-459 -145l218 -383l-89 -59l-217 389l-344 -389l-80 65l344 383z" />
<glyph unicode="+" d="M137 575l17 99h430l75 448h109l-76 -448h430l-16 -99h-430l-76 -448h-108l75 448h-430z" />
<glyph unicode="," d="M299 -313l199 544h192l-293 -544h-98z" />
<glyph unicode="-" d="M336 563l20 119h568l-21 -119h-567z" />
<glyph unicode="." d="M422 59q0 20 6 52q8 43 39 68.5t92 25.5q57 0 81 -20.5t24 -53.5q0 -20 -7 -51q-8 -43 -39 -68.5t-92 -25.5q-57 0 -80.5 20.5t-23.5 52.5z" />
<glyph unicode="/" d="M59 -283l1031 1839h108l-1030 -1839h-109z" />
<glyph unicode="0" d="M137 457q0 102 12.5 215.5t42 225.5t75.5 212t115 177t161 122t211 45q399 0 399 -481q0 -102 -12.5 -216t-42 -225.5t-75.5 -212t-114.5 -177t-160.5 -122t-211 -45.5q-399 0 -400 482zM256 438q0 -174 67.5 -265t219.5 -91q178 0 290.5 139t153.5 389l33 191 q8 53 11 101t3 89q0 174 -67.5 265.5t-218.5 91.5q-178 0 -291 -139.5t-154 -389.5l-33 -190q-8 -53 -11 -101.5t-3 -89.5zM543 682q0 14 6 45q6 37 30.5 58.5t79.5 21.5q47 0 68 -17.5t21 -41.5q0 -14 -7 -46q-6 -37 -30.5 -58t-79.5 -21q-47 0 -67.5 17t-20.5 42z" />
<glyph unicode="1" d="M92 0l19 106h424l206 1233h-12l-450 -350l-60 80l461 361h197l-222 -1324h400l-19 -106h-944z" />
<glyph unicode="2" d="M72 0l20 125l592 485q74 59 126 109.5t86 97.5t53.5 94t29.5 103q6 37 8 56.5t2 35.5q0 106 -70.5 175t-205.5 69q-139 0 -224.5 -70t-138.5 -193l-104 41q59 147 175 236.5t304 89.5q92 0 165 -26.5t123 -72.5t75.5 -109.5t25.5 -139.5q0 -84 -22.5 -155.5t-67.5 -140.5 t-112.5 -135.5t-155.5 -137.5l-533 -431h793l-19 -106h-925z" />
<glyph unicode="3" d="M68 215l98 59q45 -90 125 -142t225 -52q156 0 252 72.5t119 207.5q4 33 6 52.5t2 36.5q0 117 -73.5 183t-221.5 66h-180l18 103h170q156 0 249 67.5t116 188.5q4 27 6 44t2 32q0 102 -72.5 159.5t-193.5 57.5q-129 0 -211 -52.5t-137 -140.5l-84 66q66 100 171 165.5 t273 65.5q82 0 152.5 -21.5t121 -61.5t79 -98.5t28.5 -133.5q0 -147 -88 -250t-252 -135l-2 -9q109 -16 181.5 -96t72.5 -211q0 -100 -36 -185t-102.5 -146.5t-162.5 -96.5t-215 -35q-90 0 -160 18.5t-122 50.5t-90 76t-64 95z" />
<glyph unicode="4" d="M43 299l18 113l848 1018h160l-172 -1031h223l-16 -100h-223l-52 -299h-114l51 299h-723zM174 399h608l152 901h-8z" />
<glyph unicode="5" d="M106 209l103 65q47 -94 127 -143t205 -49q166 0 261 83t120 230q8 41 9 62.5t1 44.5q0 123 -73 194.5t-216 71.5q-111 0 -178.5 -35t-130.5 -94l-105 14l181 777h745l-16 -107h-645l-144 -600l8 -2q66 74 139.5 111.5t184.5 37.5q176 0 276.5 -97t100.5 -265 q0 -113 -35 -210t-102.5 -169t-166 -113t-227.5 -41q-154 0 -262 67t-160 167z" />
<glyph unicode="6" d="M139 387q0 168 60.5 323.5t159 291t224.5 244t257 184.5h166q-139 -86 -249 -170t-196 -176.5t-150.5 -197t-113.5 -229.5l10 -4q66 106 165 163.5t230 57.5q170 0 272.5 -98t102.5 -268q0 -109 -38 -205t-107.5 -169t-168.5 -116t-224 -43q-197 0 -298.5 112t-101.5 300 zM258 348q0 -125 74 -197.5t219 -72.5q160 0 263.5 89t129.5 239q4 35 7 56t3 42q0 125 -73.5 197.5t-218.5 72.5q-160 0 -263.5 -89t-130.5 -239q-4 -35 -7 -56t-3 -42z" />
<glyph unicode="7" d="M223 1030l68 400h928l-17 -107l-790 -1323h-133l794 1323h-690l-51 -293h-109z" />
<glyph unicode="8" d="M98 324q0 160 97.5 272.5t271.5 151.5v14q-98 31 -151.5 102.5t-53.5 175.5q0 84 34 160t98.5 132.5t156.5 89t211 32.5q188 0 289.5 -85t101.5 -228q0 -135 -83 -239.5t-230 -145.5v-13q117 -33 179 -110.5t62 -208.5q0 -94 -37.5 -176t-108.5 -142.5t-173.5 -95.5 t-233.5 -35q-213 0 -321.5 97.5t-108.5 251.5zM225 326q0 -115 83 -181.5t237 -66.5q170 0 275.5 77.5t127.5 206.5q6 37 8 55.5t2 37.5q0 115 -82.5 181t-236.5 66q-170 0 -275.5 -77.5t-127.5 -206.5q-6 -37 -8.5 -55.5t-2.5 -36.5zM383 1020q0 -104 75 -161.5t210 -57.5 q152 0 245 68.5t111 183.5q4 31 5 48t1 32q0 104 -74.5 161.5t-210.5 57.5q-152 0 -244.5 -69t-111.5 -183q-4 -31 -5 -48.5t-1 -31.5z" />
<glyph unicode="9" d="M195 922q0 106 37.5 203.5t107.5 170t169 115.5t224 43q197 0 298.5 -112t101.5 -300q0 -168 -60.5 -323.5t-159 -290.5t-224.5 -243.5t-257 -184.5h-166q139 86 249 170t196 176t150.5 195.5t113.5 230.5l-10 4q-66 -106 -165.5 -163.5t-230.5 -57.5q-170 0 -272 98.5 t-102 268.5zM317 926q0 -125 74 -198t219 -73q160 0 263.5 89.5t130.5 238.5q4 35 7 56.5t3 41.5q0 125 -74 198t-219 73q-160 0 -263.5 -89t-129.5 -239q-4 -35 -7.5 -56.5t-3.5 -41.5z" />
<glyph unicode=":" d="M422 59q0 20 6 52q8 43 39 68.5t92 25.5q57 0 81 -20.5t24 -53.5q0 -20 -7 -51q-8 -43 -39 -68.5t-92 -25.5q-57 0 -80.5 20.5t-23.5 52.5zM565 927q0 20 6 52q8 43 39 68.5t92 25.5q57 0 81 -20.5t24 -53.5q0 -20 -7 -51q-8 -43 -39 -68.5t-92 -25.5q-57 0 -80.5 20.5 t-23.5 52.5z" />
<glyph unicode=";" d="M299 -313l199 544h192l-293 -544h-98zM565 927q0 20 6 52q8 43 39 68.5t92 25.5q57 0 81 -20.5t24 -53.5q0 -20 -7 -51q-8 -43 -39 -68.5t-92 -25.5q-57 0 -80.5 20.5t-23.5 52.5z" />
<glyph unicode="&#x3c;" d="M182 571l19 109l962 518l-20 -127l-840 -446l-2 -13l690 -446l-18 -111z" />
<glyph unicode="=" d="M106 383l17 98h967l-17 -98h-967zM172 772l16 98h967l-16 -98h-967z" />
<glyph unicode="&#x3e;" d="M100 55l21 127l840 447l2 10l-693 448l21 111l790 -516l-18 -109z" />
<glyph unicode="?" d="M281 1135q27 68 67.5 126t98 101t133 67.5t170.5 24.5q178 0 278 -90t100 -244q0 -201 -130 -318.5t-349 -144.5l-41 -247h-114l55 333q219 23 322.5 93.5t125.5 212.5q4 20 5.5 42.5t1.5 30.5q0 104 -70 166t-195 62q-141 0 -224 -71t-130 -187zM381 59q0 20 6 52 q8 43 39 68.5t92 25.5q57 0 81 -20.5t24 -53.5q0 -20 -7 -51q-8 -43 -39 -68.5t-92 -25.5q-57 0 -80.5 20.5t-23.5 52.5z" />
<glyph unicode="@" d="M137 283q0 78 10.5 173t28.5 210q35 211 84 361.5t119 244.5t160 138t206 44q100 0 173 -27.5t120 -77t68.5 -117t21.5 -145.5q0 -35 -3 -68.5t-7 -70.5l-125 -758h-104l29 168h-9q-35 -78 -92 -134t-149 -56q-104 0 -161.5 71.5t-57.5 225.5q0 76 14 147.5t33 137.5 q80 283 299 282q86 0 136 -44t64 -111h9l10 69q12 68 12 133q0 131 -63.5 207t-221.5 76q-84 0 -152.5 -33t-123.5 -105.5t-97 -190.5t-69 -285l-37 -226q-10 -66 -16 -141.5t-6 -122.5q0 -92 17 -165t57 -122t107.5 -75.5t168.5 -26.5h264l-14 -94h-256q-123 0 -208 32.5 t-138.5 97t-77 160t-23.5 218.5zM555 453q0 -104 40 -150.5t112 -46.5q45 0 83.5 23.5t69.5 64.5q68 84 86 191l35 219q12 74 -27 132t-139 58q-92 0 -150.5 -66.5t-82.5 -218.5l-17 -100q-4 -31 -7 -57.5t-3 -48.5z" />
<glyph unicode="A" d="M-4 0l690 1430h162l215 -1430h-125l-61 436h-543l-209 -436h-129zM379 543h483l-108 762h-15z" />
<glyph unicode="B" d="M104 0l238 1430h444q164 0 249 -85t85 -235q0 -141 -69.5 -237.5t-196.5 -131.5v-6q98 -27 156.5 -95.5t58.5 -188.5q0 -96 -30.5 -179.5t-87 -143.5t-136.5 -94t-180 -34h-531zM242 106h372q135 0 216 61.5t100 174.5l10 64q4 20 6 37.5t2 35.5q0 90 -60.5 147.5 t-180.5 57.5h-369zM354 784h342q127 0 199 60.5t88 161.5l10 63q4 20 4 33.5v30.5q0 92 -57 141t-170 49h-326z" />
<glyph unicode="C" d="M170 475q0 98 13.5 209t43 219.5t76.5 208.5t116.5 176t162 121t211.5 45q90 0 155.5 -24.5t109.5 -67.5t71.5 -99.5t41.5 -117.5l-108 -35q-12 51 -32.5 95t-53.5 76t-79 49.5t-114 17.5q-178 0 -293.5 -140.5t-156.5 -392.5l-29 -168q-10 -53 -13 -102t-3 -96 q0 -174 74.5 -270.5t230.5 -96.5q127 0 210 70.5t163 216.5l96 -50q-86 -168 -196.5 -256t-284.5 -88q-205 0 -308.5 125t-103.5 375z" />
<glyph unicode="D" d="M121 0l237 1430h344q104 0 187.5 -33t140.5 -93.5t87 -146.5t30 -192q0 -225 -40 -403.5t-120 -303.5t-197.5 -191.5t-271.5 -66.5h-397zM258 106h268q182 0 300 124t159 370l27 166q10 47 13 98t3 99q0 176 -88 268t-250 92h-229z" />
<glyph unicode="E" d="M111 0l237 1430h860l-16 -107h-741l-91 -545h715l-18 -106h-713l-94 -566h739l-16 -106h-862z" />
<glyph unicode="F" d="M111 0l237 1430h877l-19 -107h-755l-91 -545h697l-19 -106h-694l-113 -672h-120z" />
<glyph unicode="G" d="M154 475q0 98 12 209t41 219.5t75 208.5t114.5 176t160.5 121t211 45q92 0 158.5 -24.5t113.5 -67.5t76 -99.5t43 -117.5l-108 -35q-12 51 -34 95t-55.5 76t-80.5 49.5t-115 17.5q-184 0 -296 -142.5t-153 -392.5l-28 -166q-10 -53 -12.5 -104t-2.5 -86q0 -180 68 -279.5 t225 -99.5q76 0 137.5 27.5t108.5 75.5t79 113.5t44 141.5l25 148h-326l16 98h439l-115 -682h-113l37 209h-10q-29 -47 -61.5 -90t-73.5 -75t-95.5 -50.5t-123.5 -18.5q-188 0 -284.5 123t-96.5 377z" />
<glyph unicode="H" d="M92 0l238 1430h121l-107 -652h625l108 652h121l-237 -1430h-121l112 672h-626l-113 -672h-121z" />
<glyph unicode="I" d="M90 0l16 98h377l207 1233h-377l17 99h872l-16 -99h-377l-207 -1233h377l-16 -98h-873z" />
<glyph unicode="J" d="M131 285l115 22q10 -102 70.5 -163.5t183.5 -61.5q272 0 325 315l156 926h-543l19 107h661l-178 -1068q-33 -195 -149.5 -291t-292.5 -96q-160 0 -257.5 81t-109.5 229z" />
<glyph unicode="K" d="M106 0l238 1430h121l-131 -783h8l293 287l512 496h151l-624 -607l389 -823h-131l-346 739l-281 -272l-78 -467h-121z" />
<glyph unicode="L" d="M180 0l238 1430h121l-220 -1324h701l-19 -106h-821z" />
<glyph unicode="M" d="M66 0l237 1430h150l186 -709h8l418 709h158l-238 -1430h-111l209 1249h-10l-471 -786l-207 786h-12l-207 -1249h-110z" />
<glyph unicode="N" d="M92 0l238 1430h174l356 -1289h12l213 1289h113l-237 -1430h-175l-356 1288h-12l-213 -1288h-113z" />
<glyph unicode="O" d="M137 457q0 102 12.5 215.5t42 225.5t75.5 212t115 177t161 122t211 45q399 0 399 -481q0 -102 -12.5 -216t-42 -225.5t-75.5 -212t-114.5 -177t-160.5 -122t-211 -45.5q-399 0 -400 482zM256 438q0 -174 67.5 -265t219.5 -91q178 0 290.5 139t153.5 389l33 191 q8 53 11 101t3 89q0 174 -67.5 265.5t-218.5 91.5q-178 0 -291 -139.5t-154 -389.5l-33 -190q-8 -53 -11 -101.5t-3 -89.5z" />
<glyph unicode="P" d="M111 0l237 1430h500q168 0 253 -91.5t85 -234.5q0 -221 -115 -349t-332 -128h-403l-105 -627h-120zM352 733h398q133 0 206.5 66.5t90.5 171.5l12 76q2 16 4 33.5t2 35.5q0 92 -58.5 149.5t-170.5 57.5h-385z" />
<glyph unicode="Q" d="M137 457q0 102 12.5 215.5t42 225.5t75.5 212t115 177t161 122t211 45q399 0 399 -481q0 -145 -26.5 -308t-88 -307.5t-164 -248t-253.5 -127.5l163 -246l19 -2l223 194l59 -61l-165 -152q-47 -41 -74 -59t-66 -18q-35 0 -57.5 18t-44.5 49l-186 272q-354 25 -355 480z M256 438q0 -174 67.5 -265t219.5 -91q178 0 290.5 139t153.5 389l33 191q8 53 11 101t3 89q0 174 -67.5 265.5t-218.5 91.5q-178 0 -291 -139.5t-154 -389.5l-33 -190q-8 -53 -11 -101.5t-3 -89.5z" />
<glyph unicode="R" d="M111 0l237 1430h500q168 0 253 -91.5t85 -234.5q0 -213 -109.5 -337t-312.5 -132h-37l281 -635h-131l-271 631h-270l-105 -631h-120zM352 733h398q127 0 202.5 63.5t94.5 174.5l12 76q2 16 4 33.5t2 35.5q0 92 -58.5 149.5t-170.5 57.5h-385z" />
<glyph unicode="S" d="M61 219l91 72q66 -102 160 -156.5t245 -54.5q180 0 284.5 88t104.5 244q0 102 -55 161.5t-189 88.5l-161 38q-164 37 -239 122t-75 220q0 98 36 174t100.5 129.5t155.5 81t200 27.5q188 0 296.5 -62.5t164.5 -158.5l-90 -66q-59 94 -147.5 138.5t-229.5 44.5 q-168 0 -265.5 -78t-97.5 -223q0 -106 60.5 -163t183.5 -85l160 -37q170 -41 242.5 -126t72.5 -216q0 -102 -37 -184t-104.5 -140.5t-162.5 -90.5t-214 -32q-190 0 -308 68t-182 176z" />
<glyph unicode="T" d="M197 1323l18 107h1100l-19 -107h-489l-221 -1323h-121l221 1323h-489z" />
<glyph unicode="U" d="M160 326q0 61 10 140t25 159l135 805h121l-142 -842q-16 -98 -22 -153.5t-6 -98.5q0 -129 56 -191.5t204 -62.5q104 0 169.5 28.5t108.5 87t67.5 148.5t45.5 213l145 871h121l-141 -850q-27 -162 -61.5 -277t-91 -187.5t-143.5 -106.5t-218 -34q-205 0 -294 86t-89 265z " />
<glyph unicode="V" d="M238 1430h116l185 -1307h8l614 1307h125l-678 -1430h-164z" />
<glyph unicode="W" d="M123 0l115 1430h108l-110 -1309h14l375 911h139l74 -911h14l326 1309h108l-360 -1430h-181l-65 889h-12l-363 -889h-182z" />
<glyph unicode="X" d="M-14 0l602 733l-340 697h129l287 -599h8l481 599h143l-573 -705l350 -725h-129l-299 631h-8l-508 -631h-143z" />
<glyph unicode="Y" d="M193 1430h129l309 -734h6l555 734h143l-651 -846l-98 -584h-121l96 575z" />
<glyph unicode="Z" d="M10 0l19 111l1058 1212h-813l19 107h950l-18 -111l-1059 -1213h893l-19 -106h-1030z" />
<glyph unicode="[" d="M358 -283l308 1839h534l-14 -90h-436l-277 -1659h434l-14 -90h-535z" />
<glyph unicode="\" d="M387 1556h92l416 -1839h-92z" />
<glyph unicode="]" d="M37 -283l14 90h436l277 1659h-436l16 90h535l-308 -1839h-534z" />
<glyph unicode="^" d="M147 676l560 754h127l315 -766l-94 -41l-295 704h-6l-523 -704z" />
<glyph unicode="_" d="M-2 -322l18 105h977l-18 -105h-977z" />
<glyph unicode="`" d="M479 1538l109 43l133 -342l-76 -31z" />
<glyph unicode="a" d="M127 383q0 125 29.5 249t91 224t155 162.5t222.5 62.5q127 0 207.5 -55t113.5 -154h6l31 185h115l-176 -1057h-115l41 244h-6q-61 -121 -148.5 -195t-226.5 -74q-166 0 -253 107.5t-87 300.5zM242 373q0 -129 62.5 -212t195.5 -83q66 0 127 24.5t114 77.5q47 49 87 118 t55 155l45 264q3 20 3 39q-1 32 -9 62q-14 48 -48 84t-90.5 56.5t-130.5 20.5q-80 0 -144.5 -28.5t-112.5 -79t-78.5 -120t-45.5 -151.5l-22 -129q-4 -29 -6 -52.5t-2 -45.5z" />
<glyph unicode="b" d="M131 0l252 1516h115l-117 -703h6q31 59 66.5 108.5t81 85t101.5 55t126 19.5q166 0 253 -107.5t87 -299.5q0 -125 -30 -250t-91 -224.5t-154.5 -162t-222.5 -62.5q-127 0 -208 55.5t-113 153.5h-7l-30 -184h-115zM301 340q-4 -22 -4 -43q0 -31 8 -59q14 -48 49 -83.5 t91 -56t130 -20.5q80 0 144.5 28.5t112 79t79 120t45.5 151.5l23 129q4 29 6 52.5t2 45.5q0 129 -62.5 212t-195.5 83q-66 0 -127 -24.5t-115 -77.5q-47 -49 -87 -118t-54 -155z" />
<glyph unicode="c" d="M160 418q0 154 41 276.5t113.5 208.5t170 132t209.5 46q152 0 238 -70.5t112 -174.5l-98 -37q-29 98 -95.5 140t-168.5 42q-152 0 -251 -97.5t-128 -275.5l-18 -114q-6 -35 -8.5 -56.5t-2.5 -46.5q0 -147 74 -231t213 -84q47 0 91 12t89 43t92.5 83t100.5 130l84 -47 q-47 -76 -96.5 -135.5t-105.5 -101.5t-121.5 -63.5t-145.5 -21.5q-96 0 -169 33t-122 91.5t-73.5 139t-24.5 179.5z" />
<glyph unicode="d" d="M127 383q0 125 29.5 249t91 224t155 162.5t222.5 62.5q127 0 207.5 -55t113.5 -154h6l107 644h115l-252 -1516h-115l41 244h-6q-61 -121 -148.5 -195t-226.5 -74q-166 0 -253 107.5t-87 300.5zM242 373q0 -129 62.5 -212t195.5 -83q66 0 127 24.5t114 77.5q47 49 87 118 t55 155l45 264q3 20 3 39q-1 32 -9 62q-14 48 -48 84t-90.5 56.5t-130.5 20.5q-80 0 -144.5 -27.5t-112.5 -79t-78.5 -121t-45.5 -151.5l-22 -129q-4 -29 -6 -52.5t-2 -45.5z" />
<glyph unicode="e" d="M158 430q0 139 41 258t115.5 207t178 137t228.5 49q156 0 251 -70.5t95 -201.5q0 -53 -25.5 -112.5t-107.5 -110.5t-238.5 -88t-416.5 -43q-2 -16 -2.5 -30.5t-0.5 -18.5q0 -68 13.5 -127.5t47.5 -105.5t91 -72.5t145 -26.5q123 0 209 63.5t166 194.5l84 -51 q-88 -154 -198.5 -230t-270.5 -76q-197 0 -301 114t-104 341zM287 539q213 6 343 30.5t201.5 62.5t95 83t23.5 90q0 76 -55 128t-186 52q-162 0 -274.5 -105.5t-141.5 -304.5z" />
<glyph unicode="f" d="M-33 -49l78 72l358 -355l27 6l215 1284h-385l16 99h386l47 289q12 78 58 124t132 46h391l-16 -99h-438l-62 -360h443l-17 -99h-440l-207 -1234q-10 -66 -40.5 -112t-96.5 -46q-23 0 -43.5 8t-44 26.5t-53 47t-72.5 71.5z" />
<glyph unicode="g" d="M78 -293l80 78q43 -55 109.5 -86t168.5 -31q154 0 249 78t124 262l43 258h-6q-59 -123 -148.5 -196.5t-228.5 -73.5q-168 0 -255 108.5t-87 294.5q0 123 30.5 245t92 219.5t155 157.5t220.5 60t207.5 -56t113.5 -155h6l31 187h115l-178 -1071q-39 -221 -167 -320.5 t-323 -99.5q-123 0 -211 37t-141 104zM244 399q0 -135 62.5 -218t195.5 -83q68 0 129 23.5t114 81.5q41 41 83 109.5t59 160.5l41 244q3 20 3 39q0 32 -9 62q-13 48 -48.5 84t-91 56.5t-129.5 20.5q-160 0 -256 -104.5t-125 -270.5l-18 -108q-4 -29 -7 -51.5t-3 -45.5z" />
<glyph unicode="h" d="M143 0l254 1516h115l-119 -703h8q59 125 144.5 196.5t216.5 71.5q135 0 210 -78.5t75 -220.5q0 -29 -3.5 -62.5t-9.5 -66.5l-108 -653h-115l107 641q6 35 8 65.5t2 53.5q0 106 -50.5 162.5t-150.5 56.5q-141 0 -244 -121q-31 -37 -69.5 -99.5t-55.5 -152.5l-100 -606 h-115z" />
<glyph unicode="i" d="M176 958l17 99h514l-187 -965l31 -12l461 354l61 -74l-303 -233q-53 -41 -89 -69.5t-64.5 -47t-51 -27t-47.5 -8.5q-53 0 -81.5 29t-28.5 74q0 14 3 31.5t7 46.5l155 802h-397zM614 1405q0 10 2 23.5t5 23.5q6 35 29.5 56.5t74.5 21.5q53 0 73.5 -20.5t20.5 -45.5 q0 -10 -2 -23.5t-4 -23.5q-6 -35 -29.5 -56.5t-74.5 -21.5q-53 0 -74 20.5t-21 45.5z" />
<glyph unicode="j" d="M160 -49l78 72l358 -355l29 8l213 1282h-514l16 99h627l-222 -1333q-10 -66 -39.5 -112t-95.5 -46q-23 0 -42 8t-43.5 26.5t-56.5 49.5t-77 76zM868 1405q0 10 2 23.5t4 23.5q6 35 30 56.5t75 21.5q53 0 73.5 -20.5t20.5 -45.5q0 -10 -2 -23.5t-4 -23.5 q-6 -35 -29.5 -56.5t-74.5 -21.5q-53 0 -74 20.5t-21 45.5z" />
<glyph unicode="k" d="M137 0l252 1516h115l-117 -703h8q63 129 156.5 198.5t222.5 69.5q135 0 207 -69.5t72 -182.5q0 -49 -18.5 -102t-69 -105.5t-140.5 -98.5t-231 -79l186 -364l21 -2l307 280l63 -65l-200 -195q-68 -66 -109 -94.5t-84 -28.5q-39 0 -65.5 22.5t-50.5 76.5l-201 395 q137 33 228 72t146.5 83t78 91t22.5 98q0 78 -48 124t-151 46q-78 0 -138 -29.5t-107 -81.5q-115 -117 -140 -266l-100 -606h-115z" />
<glyph unicode="l" d="M233 1417l17 99h510l-275 -1422l35 -12l469 358l62 -71l-320 -248q-53 -41 -90 -69.5t-65.5 -45t-50 -24t-44.5 -7.5q-53 0 -80.5 29t-27.5 76q0 29 8 67l244 1270h-392z" />
<glyph unicode="m" d="M49 0l176 1057h107l-27 -164h6q37 80 92.5 134t147.5 54q88 0 130 -54q37 -47 37 -122q0 -11 -1 -22h6q39 92 102.5 145t155.5 53q86 0 133 -54t47 -146q0 -25 -3 -57.5t-9 -63.5l-127 -760h-107l123 735q4 33 8.5 66t4.5 57q0 59 -27 94t-84 35q-47 0 -82 -22.5 t-67 -63.5q-33 -41 -53.5 -92t-30.5 -104l-117 -705h-107l121 729q6 35 10 65.5t4 57.5q0 135 -108 135q-49 0 -86 -23.5t-66 -62.5q-29 -41 -52 -91t-34 -105l-116 -705h-107z" />
<glyph unicode="n" d="M143 0l176 1057h115l-41 -244h8q59 125 144.5 196.5t216.5 71.5q135 0 210 -78.5t75 -220.5q0 -29 -3.5 -62.5t-9.5 -66.5l-108 -653h-115l107 641q6 35 8 65.5t2 53.5q0 106 -50.5 162.5t-150.5 56.5q-141 0 -244 -121q-31 -37 -69.5 -99.5t-55.5 -152.5l-100 -606h-115 z" />
<glyph unicode="o" d="M145 401q0 158 41 284t113 214t171 135t216 47q98 0 173 -31.5t124 -88t74.5 -135t25.5 -171.5q0 -158 -41 -283.5t-112.5 -213.5t-170.5 -135.5t-216 -47.5q-98 0 -173 32t-124 88.5t-75 135t-26 170.5zM260 375q0 -141 74 -220t217 -79q162 0 261 102.5t128 282.5 l18 114q6 35 8.5 57.5t2.5 49.5q0 141 -74 220t-217 79q-162 0 -261.5 -102.5t-127.5 -282.5l-19 -115q-6 -35 -8 -57.5t-2 -48.5z" />
<glyph unicode="p" d="M61 -410l246 1467h115l-41 -244h6q31 59 66.5 108.5t81 85t101.5 55t126 19.5q166 0 253 -107.5t87 -299.5q0 -125 -30 -250t-91 -224.5t-154.5 -162t-222.5 -62.5q-127 0 -208 55.5t-113 153.5h-7l-100 -594h-115zM301 340q-4 -22 -4 -43q0 -30 8 -59q14 -48 49 -83.5 t91 -56t130 -20.5q80 0 144.5 28.5t112 79t79 120t45.5 151.5l23 129q4 29 6 52.5t2 45.5q0 129 -62.5 212t-195.5 83q-66 0 -127 -24.5t-115 -77.5q-47 -49 -87 -118t-54 -155z" />
<glyph unicode="q" d="M127 383q0 125 29.5 249t91 224t155 162.5t222.5 62.5q127 0 207.5 -55t113.5 -154h6l31 185h115l-244 -1467h-115l109 654h-6q-61 -121 -148.5 -195t-226.5 -74q-166 0 -253 107.5t-87 300.5zM242 373q0 -129 62.5 -212t195.5 -83q66 0 127 24.5t114 77.5q47 49 87 118 t55 155l45 264q3 20 3 39q0 32 -9 62q-13 48 -47.5 84t-91 56.5t-130.5 20.5q-80 0 -144.5 -28.5t-112.5 -79t-78.5 -120t-45.5 -151.5l-22 -129q-4 -29 -6 -52.5t-2 -45.5z" />
<glyph unicode="r" d="M231 958l17 99h436l-41 -242h10q27 55 61 99t78 76t100 49.5t130 17.5h192l-18 -113h-205q-156 0 -248 -90q-35 -29 -75.5 -87t-55.5 -144l-104 -623h-115l162 958h-324z" />
<glyph unicode="s" d="M111 178l86 68q63 -88 153 -130t221 -42q156 0 247 61.5t91 177.5q0 86 -53 121t-141 45l-156 19q-59 8 -114.5 23.5t-97.5 45t-66.5 75.5t-24.5 116q0 82 34 143.5t93 101t137 59t168 19.5q150 0 246 -46t151 -117l-81 -72q-16 25 -43 49.5t-67 43.5t-93 31.5t-125 12.5 q-147 0 -227 -56.5t-80 -160.5q0 -43 14 -72.5t41 -48t63.5 -29t79.5 -16.5l154 -20q55 -6 109.5 -20.5t96.5 -42.5t68.5 -75t26.5 -118q0 -84 -34 -148.5t-95.5 -110t-145.5 -68t-184 -22.5q-311 0 -452 203z" />
<glyph unicode="t" d="M160 958l16 99h268q43 0 65.5 18.5t31.5 63.5l49 291h108l-61 -373h477l-16 -99h-477l-146 -862l29 -16l506 321l57 -73l-346 -228q-98 -68 -152.5 -96.5t-99.5 -28.5q-106 0 -107 107q0 29 7 78l137 798h-346z" />
<glyph unicode="u" d="M182 274q0 63 13 129l108 654h115l-107 -641q-6 -35 -8 -66t-2 -53q0 -106 50 -162.5t151 -56.5q72 0 133 30.5t110 90.5q31 37 70 99t55 153l101 606h114l-176 -1057h-114l41 244h-9q-59 -125 -144 -197t-216 -72q-135 0 -210 79t-75 220z" />
<glyph unicode="v" d="M150 958l16 99h350l-141 -965l20 -16q137 10 247 74.5t185.5 164t115.5 223.5t40 253q0 66 -12.5 128t-36.5 115l110 33q27 -57 41.5 -129t14.5 -143q0 -164 -56.5 -310.5t-153.5 -257t-227.5 -175t-275.5 -64.5q-123 0 -123 106q0 12 2 29.5t6 36.5l117 798h-239z" />
<glyph unicode="w" d="M113 176q0 35 4 72t10 78l121 731h104l-119 -717q-8 -45 -11 -77t-3 -62q0 -66 30 -97.5t81 -31.5q49 0 88 26.5t67 69.5q29 41 46.5 95t25.5 102l117 692h102l-117 -709q-6 -39 -8 -72.5t-2 -66.5q0 -137 111 -137q68 0 123 56t93 148.5t59.5 210t21.5 240.5 q0 86 -13.5 170t-39.5 139l98 29q27 -59 43 -145t16 -189q0 -174 -37 -332.5t-108 -265.5q-53 -76 -122 -117t-155 -41q-82 1 -132 51q-45 45 -45 144q0 12 1 25h-8q-41 -102 -102.5 -161t-157.5 -59q-92 0 -137 55.5t-45 145.5z" />
<glyph unicode="x" d="M29 225q0 29 3 63t11 68l107 6q-4 -29 -8.5 -62.5t-4.5 -66.5q0 -165 120 -165h1q80 0 139.5 64.5t97 155.5t56 190.5t18.5 170.5q0 43 -6 93.5t-16 98.5t-24.5 87t-28.5 59l-23 2l-334 -186l-45 69l203 132q74 47 109.5 62t68.5 15q55 0 90 -29.5t54.5 -79.5t27.5 -119 t14 -144h11q45 195 129 283.5t198 88.5q96 0 152.5 -60t56.5 -190q0 -29 -3 -62.5t-11 -68.5l-107 -6q4 29 8.5 63t4.5 66q0 166 -121 166q-53 0 -97 -29.5t-79 -79t-60.5 -111.5t-42 -126.5t-24.5 -127t-8 -109.5q0 -41 6 -90.5t16 -96.5t23.5 -87t29.5 -60l25 -4l317 202 l50 -69l-187 -133q-84 -59 -127 -76t-69 -17q-49 0 -81 30t-51.5 80t-28.5 117.5t-14 145.5h-10q-45 -195 -128.5 -284t-198.5 -89q-96 0 -152.5 60.5t-56.5 189.5z" />
<glyph unicode="y" d="M63 -293l82 78q41 -55 109 -86t170 -31q154 0 249 79t124 261l43 254h-6q-59 -123 -145.5 -195.5t-217.5 -72.5q-135 0 -210 79t-75 220q0 29 3.5 58.5t7.5 66.5l106 639h115l-105 -629q-6 -33 -8 -61.5t-2 -57.5q0 -100 51.5 -156.5t151.5 -56.5q145 0 244 121 q12 14 29.5 38t36 56.5t33.5 71.5t23 84l99 590h114l-178 -1071q-37 -221 -166.5 -320.5t-324.5 -99.5q-123 0 -210 37t-143 104z" />
<glyph unicode="z" d="M104 0l27 158l789 702q-150 70 -242 95.5t-162 25.5q-117 0 -160 -69.5t-45 -206.5h-96v30q0 346 303 346q166 0 410 -127l59 -30l10 8l21 125h115l-27 -158l-784 -698l600 -133l18 18l-63 313l88 27l36 -129q16 -59 28.5 -109.5t12.5 -87.5q0 -47 -35.5 -86t-107.5 -39 q-35 0 -75 8.5t-93 22.5l-481 127l-10 -8l-21 -125h-115z" />
<glyph unicode="{" d="M238 592l14 90h176q152 0 230.5 46t78.5 138q0 29 -11 57.5t-34 69.5q-20 35 -48 77t-28 118q0 10 2.5 24.5t6.5 42t11 69.5t19 108q10 55 46 89.5t102 34.5h371l-15 -90h-397q-14 -86 -22.5 -135t-12.5 -75.5t-5 -39t-1 -20.5q0 -51 19.5 -88t35.5 -64q27 -45 45.5 -87 t18.5 -89q0 -96 -69 -155.5t-198 -75.5v-6q92 -10 144.5 -55.5t52.5 -120.5q0 -66 -35 -114t-94 -112q-35 -37 -70.5 -85t-52.5 -144l-33 -193h398l-17 -90h-368q-55 0 -82 28t-27 69q0 4 1 12t4 27.5t9.5 56.5t16.5 98q8 57 25.5 100.5t39 75t45 55t41.5 44.5q55 57 76 90 t21 73q0 145 -256 146h-174z" />
<glyph unicode="|" d="M428 -283l307 1839h103l-308 -1839h-102z" />
<glyph unicode="}" d="M94 -283l15 90h397q14 86 22.5 135.5t12.5 76t5 38t1 21.5q0 51 -19.5 88t-35.5 63q-27 45 -45.5 87t-18.5 90q0 96 68.5 155.5t197.5 75.5v6q-92 10 -144 55t-52 121q0 66 34.5 114t94.5 111q16 18 34.5 39t35 46.5t30.5 60.5t23 84l32 192h-397l16 90h369 q55 0 82 -27.5t27 -68.5q0 -4 -1 -12t-4.5 -27.5t-9.5 -56.5t-16 -98q-8 -57 -25.5 -100.5t-39 -75t-45 -55t-42.5 -44.5q-55 -57 -75.5 -90t-20.5 -74q0 -145 256 -145h174l-14 -90h-176q-152 0 -231 -46t-79 -138q0 -29 11.5 -57.5t33.5 -69.5q20 -35 48 -77t28 -118 q0 -10 -2 -24.5t-6 -42t-11 -69.5t-20 -108q-10 -55 -46 -90t-101 -35h-371z" />
<glyph unicode="~" d="M123 549q51 94 121.5 146.5t169.5 52.5q63 0 114.5 -20.5t110.5 -51.5q66 -35 115 -55.5t98 -20.5q66 0 113 39t92 109l82 -50q-51 -94 -122 -146t-169 -52q-63 0 -114.5 20.5t-110.5 50.5q-66 35 -115 55.5t-98 20.5q-66 0 -113 -39t-92 -108z" />
<glyph unicode="&#xa0;" />
<glyph unicode="&#xa1;" d="M401 -373l80 479l125 519h49l-49 -519l-80 -479h-125zM565 926q0 20 6 51q8 43 39 68.5t92 25.5q57 0 81 -20.5t24 -53.5q0 -20 -6 -51q-8 -43 -39 -68.5t-92 -25.5q-57 0 -81 20.5t-24 53.5z" />
<glyph unicode="&#xa2;" d="M160 418q0 147 36.5 265t102.5 204t156 135t196 57l35 211h92l-35 -213q127 -10 202 -77.5t99 -163.5l-98 -37q-27 86 -83 130t-140 50l-150 -903h11q90 4 171 64.5t179 203.5l84 -47q-45 -74 -93 -131t-101.5 -99t-116 -64.5t-136.5 -25.5h-12l-35 -210h-92l35 215 q-154 27 -230.5 144.5t-76.5 291.5zM274 391q0 -127 54.5 -207t158.5 -102l148 897q-131 -14 -217 -111.5t-115 -259.5l-18 -114q-6 -35 -8.5 -56.5t-2.5 -46.5z" />
<glyph unicode="&#xa3;" d="M59 0l25 160q57 27 104.5 58.5t81 76.5t53 105.5t19.5 142.5q0 29 -2 54.5t-6 49.5h-211l16 101h176q-10 55 -20 108t-10 113q0 109 33.5 198.5t95 153t147.5 98.5t191 35q86 0 152.5 -21.5t116.5 -59.5t83 -87t49 -104l-104 -43q-35 98 -108 155.5t-196 57.5 q-160 0 -249.5 -102.5t-89.5 -291.5q0 -57 9 -107t19 -103h395l-16 -101h-360q4 -23 6 -49.5t2 -50.5q0 -53 -12.5 -106.5t-39 -97.5t-67.5 -77t-96 -45l-2 -6l735 -133l18 16l-61 310l90 26l35 -131q18 -61 29.5 -114.5t11.5 -90.5q0 -53 -31 -88t-90 -35q-39 0 -90 11.5 t-117 25.5l-575 115l-21 -127h-119z" />
<glyph unicode="&#xa5;" d="M80 0l16 100h389l76 455h-391l16 100h326l-309 775h127l297 -773h6l557 773h139l-571 -775h325l-16 -100h-391l-76 -455h391l-16 -100h-895z" />
<glyph unicode="&#xa6;" d="M428 -283l123 738h102l-123 -738h-102zM612 819l123 737h103l-123 -737h-103z" />
<glyph unicode="&#xa7;" d="M160 -199l73 76q47 -45 112 -69.5t149 -24.5q137 0 214.5 62.5t77.5 170.5q0 84 -50 131.5t-142 75.5l-137 41q-143 41 -197.5 110.5t-54.5 166.5q0 242 289 321v12q-63 41 -94 101.5t-31 136.5q0 78 29.5 141.5t83 107.5t129 68.5t167.5 24.5q98 0 187.5 -29.5 t144.5 -87.5l-74 -75q-47 43 -111.5 67.5t-148.5 24.5q-137 0 -215 -62.5t-78 -169.5q0 -86 50.5 -133t142.5 -76l137 -39q143 -43 198.5 -112.5t55.5 -163.5q0 -242 -291 -324v-10q127 -83 127 -237q0 -78 -29.5 -141.5t-84 -108.5t-129 -69.5t-166.5 -24.5 q-100 0 -189.5 29.5t-144.5 88.5zM317 561q0 -78 47.5 -127t163.5 -84l138 -39q29 -6 53 -18q111 43 172 113.5t61 168.5q0 78 -46 127.5t-165 83.5l-135 39q-16 4 -29.5 8.5l-25.5 8.5q-111 -43 -172.5 -113t-61.5 -168z" />
<glyph unicode="&#xa8;" d="M383 1352q0 18 6 41q8 35 29.5 53t68.5 18t66.5 -18.5t19.5 -40.5q0 -20 -6 -41q-8 -35 -29.5 -53.5t-68.5 -18.5t-66.5 18.5t-19.5 41.5zM760 1352q0 18 6 41q8 35 29.5 53t68.5 18t66.5 -18.5t19.5 -40.5q0 -20 -6 -41q-8 -35 -29.5 -53.5t-68.5 -18.5t-66.5 18.5 t-19.5 41.5z" />
<glyph unicode="&#xa9;" d="M25 612q0 174 52 317.5t146 247t222 160t282 56.5q117 0 215 -40t169 -115t111 -181.5t40 -239.5q0 -174 -52.5 -317.5t-146.5 -246.5t-222 -159.5t-282 -56.5q-117 0 -215 40t-169 114.5t-110.5 181t-39.5 239.5zM115 612q0 -102 27.5 -191t83 -156.5t140 -106.5 t199.5 -39t213.5 38t174 105.5t126.5 160.5t70 202q8 43 12 73.5t6 52t3 37t1 29.5q0 100 -27.5 190.5t-82.5 158t-140 106.5t-200 39t-213 -38t-174 -105.5t-127 -161t-70 -201.5q-16 -86 -19 -126t-3 -67zM350 647q0 88 25.5 165t72 134.5t111 89t141.5 31.5 q92 0 146.5 -43t77.5 -111l-86 -34q-16 51 -49 77.5t-99 26.5q-92 0 -147.5 -55.5t-73.5 -159.5l-14 -86q-6 -35 -6 -64q0 -82 39.5 -125.5t113.5 -43.5q66 0 114 30.5t83 81.5l67 -45q-41 -66 -109.5 -108.5t-160.5 -42.5q-113 0 -179.5 73.5t-66.5 208.5z" />
<glyph unicode="&#xaa;" d="M367 901q0 109 75.5 168t245.5 59h170l12 78q4 14 4 26.5v22.5q0 61 -40.5 91t-116.5 30q-66 0 -120 -29.5t-87 -82.5l-59 51q37 57 106.5 98t169.5 41q115 0 178.5 -49t63.5 -139q0 -12 -1 -28.5t-5 -33.5l-76 -463h-94l18 111h-12q-29 -47 -83 -85t-141 -38 q-104 0 -156 47t-52 125zM461 899q0 -92 131 -92q43 0 83 10t71.5 29.5t54 47.5t28.5 64l17 99h-168q-102 0 -150.5 -26.5t-58.5 -78.5q-8 -41 -8 -53z" />
<glyph unicode="&#xab;" d="M156 496l18 112l486 363l24 -88l-399 -340l287 -336l-51 -76zM612 496l18 112l486 363l24 -88l-399 -340l287 -336l-51 -76z" />
<glyph unicode="&#xac;" d="M137 575l17 99h942l-82 -494h-101l66 395h-842z" />
<glyph unicode="&#xad;" d="M336 563l20 119h568l-21 -119h-567z" />
<glyph unicode="&#xae;" d="M311 1036q0 88 32 165t87 133.5t131 88t164 31.5q74 0 135.5 -23.5t106.5 -66.5t70.5 -103.5t25.5 -134.5q0 -90 -32 -165.5t-87 -132t-131 -88t-164 -31.5q-74 0 -135 23.5t-106.5 66.5t-71 103.5t-25.5 133.5zM383 1036q0 -121 67.5 -193.5t196.5 -72.5q135 0 222 71.5 t110 188.5q8 41 10 60.5t2 35.5q0 121 -67.5 194t-196.5 73q-135 0 -222 -72t-110 -188q-8 -41 -10 -60.5t-2 -36.5zM526 897l64 379h160q100 0 100 -94q0 -55 -28.5 -86t-76.5 -41l74 -158h-67l-66 150h-74l-26 -150h-60zM618 1094h89q66 0 73 57q4 12 4 18.5v10.5 q0 47 -55 47h-88z" />
<glyph unicode="&#xaf;" d="M383 1331l16 99h551l-16 -99h-551z" />
<glyph unicode="&#xb0;" d="M373 1083q0 78 27.5 145.5t77.5 118t119 79t148 28.5q135 0 220.5 -81t85.5 -220q0 -78 -28 -145.5t-78 -117.5t-118.5 -79t-148.5 -29q-135 0 -220 81t-85 220zM475 1087q0 -94 53.5 -152t153.5 -58q57 0 106.5 20.5t84 57t55 87t20.5 107.5q0 94 -53 152.5t-154 58.5 q-57 0 -106 -20.5t-84 -57.5t-55.5 -87t-20.5 -108z" />
<glyph unicode="&#xb1;" d="M41 0l16 98h971l-16 -98h-971zM162 717l16 98h430l74 436h109l-74 -436h430l-17 -98h-430l-73 -436h-109l74 436h-430z" />
<glyph unicode="&#xb2;" d="M373 674l14 90l291 211q88 63 136 111.5t58 109.5q4 14 4.5 24.5t0.5 20.5q0 53 -41 87t-107 34q-78 0 -124 -41t-68 -96l-78 32q35 78 99.5 131.5t176.5 53.5q102 0 171 -52.5t69 -148.5q0 -53 -20.5 -98t-55.5 -83t-80 -73t-92 -69l-235 -168h423l-12 -76h-530z" />
<glyph unicode="&#xb3;" d="M375 793l67 47q27 -47 71 -75t128 -28q162 0 186 131q6 27 7 43q0 53 -40 85t-118 32h-96l12 76h94q96 0 135 32.5t49 84.5q2 12 3 21t1 18q0 47 -34.5 76.5t-102.5 29.5q-125 0 -198 -96l-58 51q41 53 104.5 87t153.5 34q111 0 170.5 -52.5t59.5 -134.5 q0 -78 -50.5 -128t-127.5 -62v-4q63 -10 98 -50t35 -110q0 -106 -75 -172.5t-210 -66.5q-106 0 -171 38.5t-93 92.5z" />
<glyph unicode="&#xb4;" d="M567 1251l244 330l100 -59l-274 -314z" />
<glyph unicode="&#xb5;" d="M68 -410l241 1467h115l-109 -647q-4 -33 -6 -65t-2 -54q0 -106 53.5 -159.5t155.5 -53.5q70 0 127 30.5t111 92.5q12 14 29.5 37.5t36 56.5t33.5 72t24 84l100 606h115l-177 -1057h-114l41 244h-6q-25 -53 -58 -101.5t-73.5 -85.5t-94 -59.5t-121.5 -22.5q-90 0 -147 41 t-76 119h-6l-24 -215l-56 -330h-112z" />
<glyph unicode="&#xb6;" d="M180 905q0 117 43 214.5t118 166t173 106.5t209 38h430l-289 -1735h-104l272 1640h-213l-272 -1640h-105l136 809q-90 0 -163 28.5t-125 81t-81 126t-29 165.5z" />
<glyph unicode="&#xb7;" d="M508 588q0 20 6 51q8 43 39 68.5t92 25.5q57 0 81 -20.5t24 -53.5q0 -20 -7 -51q-8 -43 -39 -68.5t-92 -25.5q-57 0 -80.5 20.5t-23.5 53.5z" />
<glyph unicode="&#xb8;" d="M395 -344l62 61q16 -25 45.5 -40t72.5 -15q53 0 87 23.5t34 64.5q0 27 -23.5 50.5t-94.5 31.5l-66 6l72 189h78l-62 -162l4 -4q18 4 38 5t32 1q57 0 89 -30t32 -87q0 -84 -64 -127t-156 -43q-72 0 -115.5 23.5t-64.5 52.5z" />
<glyph unicode="&#xb9;" d="M414 674l12 76h236l98 591l-252 -127l-31 66l291 150h96l-112 -680h211l-13 -76h-536z" />
<glyph unicode="&#xba;" d="M389 1008q0 98 26.5 180t75 141.5t117 92t154.5 32.5q119 0 192.5 -78t73.5 -200q0 -98 -26.5 -180.5t-74.5 -141.5t-117 -92t-155 -33q-119 0 -192.5 78t-73.5 201zM487 991q0 -78 44.5 -129t134.5 -51q104 0 164.5 63.5t76.5 157.5l19 103q4 18 4 31.5v25.5 q0 78 -44 129t-134 51q-104 0 -165 -63.5t-77 -157.5l-18 -102q-4 -18 -4.5 -31.5t-0.5 -26.5z" />
<glyph unicode="&#xbb;" d="M99 219l399 340l-287 338l51 74l365 -363l-18 -112l-486 -365zM555 219l399 340l-287 338l51 74l365 -363l-18 -112l-486 -365z" />
<glyph unicode="&#xbc;" d="M-37 0l443 614h106l-442 -614h-107zM119 743l12 76h209l88 527l-225 -109l-29 68l258 125h103l-103 -611h189l-15 -76h-487zM579 143l17 88l391 455h131l-78 -469h105l-13 -74h-104l-23 -143h-90l23 143h-359zM674 217h276l64 389h-7zM780 815l443 615h106l-442 -615 h-107z" />
<glyph unicode="&#xbd;" d="M-37 0l443 614h106l-442 -614h-107zM119 743l12 76h209l88 527l-225 -109l-29 68l258 125h103l-103 -611h189l-15 -76h-487zM596 0l16 86l275 199q76 55 110.5 99t44.5 91q4 14 4 25.5v15.5q0 47 -28.5 76t-92.5 29q-66 0 -107.5 -33t-70.5 -92l-75 32q35 74 96 122 t166 48q104 0 156.5 -52t52.5 -126q0 -90 -56.5 -153.5t-154.5 -135.5l-217 -155h383l-13 -76h-489zM780 815l443 615h106l-442 -615h-107z" />
<glyph unicode="&#xbe;" d="M-37 0l443 614h106l-442 -614h-107zM109 860l71 45q20 -43 57.5 -70.5t108.5 -27.5q74 0 117 31.5t53 85.5q2 10 3 20t1 19q0 47 -33.5 74.5t-105.5 27.5h-84l12 72h78q78 0 119 27.5t49 68.5q4 14 4 23.5v17.5q0 41 -32.5 66.5t-98.5 25.5q-55 0 -94 -22.5t-74 -63.5 l-57 53q45 53 100.5 81t139.5 28q98 0 155.5 -43t57.5 -115q0 -76 -47.5 -120t-118.5 -58v-8q57 -10 91 -46t34 -96q0 -100 -74 -162.5t-195 -62.5q-104 0 -159.5 39t-77.5 90zM579 143l17 88l391 455h131l-78 -469h105l-13 -74h-104l-23 -143h-90l23 143h-359zM674 217h276 l64 389h-7zM780 815l443 615h106l-442 -615h-107z" />
<glyph unicode="&#xbf;" d="M96 -63q0 201 130 318.5t349 143.5l41 248h115l-55 -334q-219 -23 -322.5 -93t-126.5 -212q-4 -20 -5 -42.5t-1 -31.5q0 -104 69.5 -165.5t194.5 -61.5q141 0 224.5 70.5t130.5 187.5l104 -43q-27 -68 -67.5 -126t-98 -101t-133.5 -67.5t-170 -24.5q-178 0 -278.5 90 t-100.5 244zM602 926q0 20 6 51q8 43 39 68.5t92 25.5q57 0 81 -20.5t24 -53.5q0 -20 -6 -51q-8 -43 -39 -68.5t-92 -25.5q-57 0 -81 20.5t-24 53.5z" />
<glyph unicode="&#xc0;" d="M-4 0l690 1430h162l215 -1430h-125l-61 436h-543l-209 -436h-129zM379 543h483l-108 762h-15zM633 1882l107 47l133 -342l-76 -31z" />
<glyph unicode="&#xc1;" d="M-4 0l690 1430h162l215 -1430h-125l-61 436h-543l-209 -436h-129zM379 543h483l-108 762h-15zM719 1599l244 330l100 -59l-274 -314z" />
<glyph unicode="&#xc2;" d="M-4 0l690 1430h162l215 -1430h-125l-61 436h-543l-209 -436h-129zM379 543h483l-108 762h-15zM492 1624l285 281h143l193 -291l-70 -41l-203 248l-289 -248z" />
<glyph unicode="&#xc3;" d="M-4 0l690 1430h162l215 -1430h-125l-61 436h-543l-209 -436h-129zM379 543h483l-108 762h-15zM492 1729q39 41 87 68.5t105 27.5q47 0 80 -17.5t72 -42.5q37 -25 67.5 -37t63.5 -12q35 0 66.5 17.5t66.5 46.5l45 -62q-39 -41 -87 -68.5t-105 -27.5q-47 0 -80 17.5 t-72 41.5q-37 25 -67.5 37.5t-63.5 12.5q-35 0 -66.5 -17.5t-66.5 -46.5z" />
<glyph unicode="&#xc4;" d="M-4 0l690 1430h162l215 -1430h-125l-61 436h-543l-209 -436h-129zM379 543h483l-108 762h-15zM535 1700q0 18 6 41q8 35 29.5 53t68.5 18t66.5 -18t19.5 -41q0 -20 -6 -41q-8 -35 -29.5 -53.5t-68.5 -18.5t-66.5 18.5t-19.5 41.5zM912 1700q0 18 6 41q8 35 29.5 53 t68.5 18t66.5 -18t19.5 -41q0 -20 -6 -41q-8 -35 -29.5 -53.5t-68.5 -18.5t-66.5 18.5t-19.5 41.5z" />
<glyph unicode="&#xc5;" d="M-4 0l690 1430h162l215 -1430h-125l-61 436h-543l-209 -436h-129zM379 543h483l-108 762h-15zM607 1733q0 51 19.5 96t53 77.5t77.5 51t95 18.5q86 0 137.5 -51t51.5 -133q0 -53 -19.5 -97t-53.5 -77t-78 -51.5t-95 -18.5q-86 0 -137 51.5t-51 133.5zM691 1718 q0 -45 29.5 -70.5t82.5 -25.5q59 0 97 32t49 91q8 39 8 61q0 45 -30 71t-83 26q-59 0 -97 -32t-48 -91q-8 -39 -8 -62z" />
<glyph unicode="&#xc6;" d="M-37 0l670 1430h643l-16 -103h-371l-90 -551h344l-19 -102h-344l-94 -572h371l-17 -102h-485l72 438h-336l-203 -438h-125zM334 539h311l131 800h-74z" />
<glyph unicode="&#xc7;" d="M170 475q0 98 13.5 209t43 219.5t76.5 208.5t116.5 176t162 121t211.5 45q90 0 155.5 -24.5t109.5 -67.5t71.5 -99.5t41.5 -117.5l-108 -35q-12 51 -32.5 95t-53.5 76t-79 49.5t-114 17.5q-178 0 -293.5 -140.5t-156.5 -392.5l-29 -168q-10 -53 -13 -102t-3 -96 q0 -174 74.5 -270.5t230.5 -96.5q127 0 210 70.5t163 216.5l96 -50q-41 -80 -87 -142t-100.5 -105t-119 -67.5t-144.5 -27.5l-43 -112l4 -4q18 4 38 5t32 1q57 0 89 -30t32 -87q0 -84 -62.5 -127t-154.5 -43q-72 0 -117 23.5t-63 52.5l59 61q18 -25 47 -40t74 -15 q53 0 86 23.5t33 64.5q0 27 -22.5 50.5t-94.5 31.5l-68 6l54 139q-180 14 -272.5 138.5t-92.5 359.5z" />
<glyph unicode="&#xc8;" d="M111 0l237 1430h860l-16 -107h-741l-91 -545h715l-18 -106h-713l-94 -566h739l-16 -106h-862zM647 1882l107 47l133 -342l-76 -31z" />
<glyph unicode="&#xc9;" d="M111 0l237 1430h860l-16 -107h-741l-91 -545h715l-18 -106h-713l-94 -566h739l-16 -106h-862zM733 1599l244 330l100 -59l-274 -314z" />
<glyph unicode="&#xca;" d="M111 0l237 1430h860l-16 -107h-741l-91 -545h715l-18 -106h-713l-94 -566h739l-16 -106h-862zM506 1624l285 281h143l193 -291l-70 -41l-203 248l-289 -248z" />
<glyph unicode="&#xcb;" d="M111 0l237 1430h860l-16 -107h-741l-91 -545h715l-18 -106h-713l-94 -566h739l-16 -106h-862zM549 1700q0 18 6 41q8 35 29.5 53t68.5 18t66.5 -18t19.5 -41q0 -20 -6 -41q-8 -35 -29.5 -53.5t-68.5 -18.5t-66.5 18.5t-19.5 41.5zM926 1700q0 18 6 41q8 35 29.5 53 t68.5 18t66.5 -18t19.5 -41q0 -20 -6 -41q-8 -35 -29.5 -53.5t-68.5 -18.5t-66.5 18.5t-19.5 41.5z" />
<glyph unicode="&#xcc;" d="M90 0l16 98h377l207 1233h-377l17 99h872l-16 -99h-377l-207 -1233h377l-16 -98h-873zM631 1882l107 47l133 -342l-76 -31z" />
<glyph unicode="&#xcd;" d="M90 0l16 98h377l207 1233h-377l17 99h872l-16 -99h-377l-207 -1233h377l-16 -98h-873zM717 1599l244 330l100 -59l-274 -314z" />
<glyph unicode="&#xce;" d="M90 0l16 98h377l207 1233h-377l17 99h872l-16 -99h-377l-207 -1233h377l-16 -98h-873zM490 1624l285 281h143l193 -291l-70 -41l-203 248l-289 -248z" />
<glyph unicode="&#xcf;" d="M90 0l16 98h377l207 1233h-377l17 99h872l-16 -99h-377l-207 -1233h377l-16 -98h-873zM533 1700q0 18 6 41q8 35 29.5 53t68.5 18t66.5 -18t19.5 -41q0 -20 -6 -41q-8 -35 -29.5 -53.5t-68.5 -18.5t-66.5 18.5t-19.5 41.5zM910 1700q0 18 6 41q8 35 29.5 53t68.5 18 t66.5 -18t19.5 -41q0 -20 -6 -41q-8 -35 -29.5 -53.5t-68.5 -18.5t-66.5 18.5t-19.5 41.5z" />
<glyph unicode="&#xd0;" d="M78 709l14 92h164l102 629h344q104 0 187.5 -33t140.5 -93.5t87 -146.5t30 -192q0 -225 -40 -403.5t-120 -303.5t-197.5 -191.5t-271.5 -66.5h-397l119 709h-162zM258 106h268q182 0 300 123t159 371l27 166q8 47 12 98t4 99q0 176 -88 268t-250 92h-229l-86 -522h330 l-15 -92h-330z" />
<glyph unicode="&#xd1;" d="M92 0l238 1430h174l356 -1289h12l213 1289h113l-237 -1430h-175l-356 1288h-12l-213 -1288h-113zM487 1729q39 41 87 68.5t105 27.5q47 0 80 -17.5t72 -42.5q37 -25 67.5 -37t63.5 -12q35 0 66.5 17.5t66.5 46.5l45 -62q-39 -41 -87 -68.5t-105 -27.5q-47 0 -80 17.5 t-72 41.5q-37 25 -67.5 37.5t-63.5 12.5q-35 0 -66.5 -17.5t-66.5 -46.5z" />
<glyph unicode="&#xd2;" d="M137 457q0 102 12.5 215.5t42 225.5t75.5 212t115 177t161 122t211 45q399 0 399 -481q0 -102 -12.5 -216t-42 -225.5t-75.5 -212t-114.5 -177t-160.5 -122t-211 -45.5q-399 0 -400 482zM256 438q0 -174 67.5 -265t219.5 -91q178 0 290.5 139t153.5 389l33 191 q8 53 11 101t3 89q0 174 -67.5 265.5t-218.5 91.5q-178 0 -291 -139.5t-154 -389.5l-33 -190q-8 -53 -11 -101.5t-3 -89.5zM618 1882l107 47l133 -342l-76 -31z" />
<glyph unicode="&#xd3;" d="M137 457q0 102 12.5 215.5t42 225.5t75.5 212t115 177t161 122t211 45q399 0 399 -481q0 -102 -12.5 -216t-42 -225.5t-75.5 -212t-114.5 -177t-160.5 -122t-211 -45.5q-399 0 -400 482zM256 438q0 -174 67.5 -265t219.5 -91q178 0 290.5 139t153.5 389l33 191 q8 53 11 101t3 89q0 174 -67.5 265.5t-218.5 91.5q-178 0 -291 -139.5t-154 -389.5l-33 -190q-8 -53 -11 -101.5t-3 -89.5zM704 1599l244 330l100 -59l-274 -314z" />
<glyph unicode="&#xd4;" d="M137 457q0 102 12.5 215.5t42 225.5t75.5 212t115 177t161 122t211 45q399 0 399 -481q0 -102 -12.5 -216t-42 -225.5t-75.5 -212t-114.5 -177t-160.5 -122t-211 -45.5q-399 0 -400 482zM256 438q0 -174 67.5 -265t219.5 -91q178 0 290.5 139t153.5 389l33 191 q8 53 11 101t3 89q0 174 -67.5 265.5t-218.5 91.5q-178 0 -291 -139.5t-154 -389.5l-33 -190q-8 -53 -11 -101.5t-3 -89.5zM477 1624l285 281h143l193 -291l-70 -41l-203 248l-289 -248z" />
<glyph unicode="&#xd5;" d="M137 457q0 102 12.5 215.5t42 225.5t75.5 212t115 177t161 122t211 45q399 0 399 -481q0 -102 -12.5 -216t-42 -225.5t-75.5 -212t-114.5 -177t-160.5 -122t-211 -45.5q-399 0 -400 482zM256 438q0 -174 67.5 -265t219.5 -91q178 0 290.5 139t153.5 389l33 191 q8 53 11 101t3 89q0 174 -67.5 265.5t-218.5 91.5q-178 0 -291 -139.5t-154 -389.5l-33 -190q-8 -53 -11 -101.5t-3 -89.5zM477 1729q39 41 87 68.5t105 27.5q47 0 80 -17.5t72 -42.5q37 -25 67.5 -37t63.5 -12q35 0 66.5 17.5t66.5 46.5l45 -62q-39 -41 -87 -68.5 t-105 -27.5q-47 0 -80 17.5t-72 41.5q-37 25 -67.5 37.5t-63.5 12.5q-35 0 -66.5 -17.5t-66.5 -46.5z" />
<glyph unicode="&#xd6;" d="M137 457q0 102 12.5 215.5t42 225.5t75.5 212t115 177t161 122t211 45q399 0 399 -481q0 -102 -12.5 -216t-42 -225.5t-75.5 -212t-114.5 -177t-160.5 -122t-211 -45.5q-399 0 -400 482zM256 438q0 -174 67.5 -265t219.5 -91q178 0 290.5 139t153.5 389l33 191 q8 53 11 101t3 89q0 174 -67.5 265.5t-218.5 91.5q-178 0 -291 -139.5t-154 -389.5l-33 -190q-8 -53 -11 -101.5t-3 -89.5zM520 1700q0 18 6 41q8 35 29.5 53t68.5 18t66.5 -18t19.5 -41q0 -20 -6 -41q-8 -35 -29.5 -53.5t-68.5 -18.5t-66.5 18.5t-19.5 41.5zM897 1700 q0 18 6 41q8 35 29.5 53t68.5 18t66.5 -18t19.5 -41q0 -20 -6 -41q-8 -35 -29.5 -53.5t-68.5 -18.5t-66.5 18.5t-19.5 41.5z" />
<glyph unicode="&#xd7;" d="M154 279l409 354l-289 348l74 63l291 -350l410 350l61 -71l-410 -352l291 -351l-76 -63l-290 352l-410 -352z" />
<glyph unicode="&#xd8;" d="M45 -6l141 188q-23 53 -36 122t-13 153q0 102 12.5 215.5t42 225.5t76.5 212t116 177t161 122t211 45q195 0 293 -117l112 152l84 -53l-141 -189q23 -53 36 -121.5t13 -152.5q0 -102 -12.5 -216t-42 -225.5t-76.5 -212t-115.5 -177t-160.5 -122t-211 -45.5 q-195 0 -293 117l-113 -151zM256 438q0 -43 4 -78.5t14 -64.5l703 946q-70 106 -229 107q-178 0 -291 -139.5t-154 -389.5l-33 -190q-8 -53 -11 -101.5t-3 -89.5zM313 188q70 -106 230 -106q178 0 290.5 139t153.5 389l33 191q8 53 11 101t3 89q0 43 -4 79t-14 65z" />
<glyph unicode="&#xd9;" d="M160 326q0 61 10 140t25 159l135 805h121l-142 -842q-16 -98 -22 -153.5t-6 -98.5q0 -129 56 -191.5t204 -62.5q104 0 169.5 28.5t108.5 87t67.5 148.5t45.5 213l145 871h121l-141 -850q-27 -162 -61.5 -277t-91 -187.5t-143.5 -106.5t-218 -34q-205 0 -294 86t-89 265z M622 1882l107 47l133 -342l-76 -31z" />
<glyph unicode="&#xda;" d="M160 326q0 61 10 140t25 159l135 805h121l-142 -842q-16 -98 -22 -153.5t-6 -98.5q0 -129 56 -191.5t204 -62.5q104 0 169.5 28.5t108.5 87t67.5 148.5t45.5 213l145 871h121l-141 -850q-27 -162 -61.5 -277t-91 -187.5t-143.5 -106.5t-218 -34q-205 0 -294 86t-89 265z M708 1599l244 330l100 -59l-274 -314z" />
<glyph unicode="&#xdb;" d="M160 326q0 61 10 140t25 159l135 805h121l-142 -842q-16 -98 -22 -153.5t-6 -98.5q0 -129 56 -191.5t204 -62.5q104 0 169.5 28.5t108.5 87t67.5 148.5t45.5 213l145 871h121l-141 -850q-27 -162 -61.5 -277t-91 -187.5t-143.5 -106.5t-218 -34q-205 0 -294 86t-89 265z M481 1624l285 281h143l193 -291l-70 -41l-203 248l-289 -248z" />
<glyph unicode="&#xdc;" d="M160 326q0 61 10 140t25 159l135 805h121l-142 -842q-16 -98 -22 -153.5t-6 -98.5q0 -129 56 -191.5t204 -62.5q104 0 169.5 28.5t108.5 87t67.5 148.5t45.5 213l145 871h121l-141 -850q-27 -162 -61.5 -277t-91 -187.5t-143.5 -106.5t-218 -34q-205 0 -294 86t-89 265z M524 1700q0 18 6 41q8 35 29.5 53t68.5 18t66.5 -18t19.5 -41q0 -20 -6 -41q-8 -35 -29.5 -53.5t-68.5 -18.5t-66.5 18.5t-19.5 41.5zM901 1700q0 18 6 41q8 35 29.5 53t68.5 18t66.5 -18t19.5 -41q0 -20 -6 -41q-8 -35 -29.5 -53.5t-68.5 -18.5t-66.5 18.5t-19.5 41.5z" />
<glyph unicode="&#xdd;" d="M193 1430h129l309 -734h6l555 734h143l-651 -846l-98 -584h-121l96 575zM706 1599l244 330l100 -59l-274 -314z" />
<glyph unicode="&#xde;" d="M111 0l239 1430h121l-51 -302h377q170 0 255 -92t85 -235q0 -219 -116 -347t-333 -128h-401l-56 -326h-120zM303 432h395q133 0 208 65.5t91 172.5l13 73q6 33 6 74q0 92 -59.5 148.5t-172.5 56.5h-381z" />
<glyph unicode="&#xdf;" d="M160 0l221 1346q16 100 68.5 135t121.5 35h347l-17 -99h-393l-59 -360h718l-18 -113l-475 -516q190 -10 303 -93t113 -243q0 -231 -145.5 -366.5t-442.5 -135.5h-154l17 99h145q199 0 312.5 71.5t135.5 223.5q10 59 11.5 82.5t1.5 39.5q0 129 -99.5 182.5t-285.5 53.5 h-45l16 100l475 516h-600l-158 -958h-114z" />
<glyph unicode="&#xe0;" d="M127 383q0 125 29.5 249t91 224t155 162.5t222.5 62.5q127 0 207.5 -55t113.5 -154h6l31 185h115l-176 -1057h-115l41 244h-6q-61 -121 -148.5 -195t-226.5 -74q-166 0 -253 107.5t-87 300.5zM242 373q0 -129 62.5 -212t195.5 -83q66 0 127 24.5t114 77.5q47 49 87 118 t55 155l45 264q8 53 -5.5 101t-48 84t-91 56.5t-130.5 20.5q-80 0 -144.5 -28.5t-112.5 -79t-78.5 -120t-45.5 -151.5l-22 -129q-4 -29 -6 -52.5t-2 -45.5zM520 1538l109 43l133 -342l-76 -31z" />
<glyph unicode="&#xe1;" d="M127 383q0 125 29.5 249t91 224t155 162.5t222.5 62.5q127 0 207.5 -55t113.5 -154h6l31 185h115l-176 -1057h-115l41 244h-6q-61 -121 -148.5 -195t-226.5 -74q-166 0 -253 107.5t-87 300.5zM242 373q0 -129 62.5 -212t195.5 -83q66 0 127 24.5t114 77.5q47 49 87 118 t55 155l45 264q8 53 -5.5 101t-48 84t-91 56.5t-130.5 20.5q-80 0 -144.5 -28.5t-112.5 -79t-78.5 -120t-45.5 -151.5l-22 -129q-4 -29 -6 -52.5t-2 -45.5zM608 1251l244 330l100 -59l-274 -314z" />
<glyph unicode="&#xe2;" d="M127 383q0 125 29.5 249t91 224t155 162.5t222.5 62.5q127 0 207.5 -55t113.5 -154h6l31 185h115l-176 -1057h-115l41 244h-6q-61 -121 -148.5 -195t-226.5 -74q-166 0 -253 107.5t-87 300.5zM242 373q0 -129 62.5 -212t195.5 -83q66 0 127 24.5t114 77.5q47 49 87 118 t55 155l45 264q8 53 -5.5 101t-48 84t-91 56.5t-130.5 20.5q-80 0 -144.5 -28.5t-112.5 -79t-78.5 -120t-45.5 -151.5l-22 -129q-4 -29 -6 -52.5t-2 -45.5zM381 1276l285 280h143l193 -290l-70 -41l-203 248l-289 -248z" />
<glyph unicode="&#xe3;" d="M127 383q0 125 29.5 249t91 224t155 162.5t222.5 62.5q127 0 207.5 -55t113.5 -154h6l31 185h115l-176 -1057h-115l41 244h-6q-61 -121 -148.5 -195t-226.5 -74q-166 0 -253 107.5t-87 300.5zM242 373q0 -129 62.5 -212t195.5 -83q66 0 127 24.5t114 77.5q47 49 87 118 t55 155l45 264q8 53 -5.5 101t-48 84t-91 56.5t-130.5 20.5q-80 0 -144.5 -28.5t-112.5 -79t-78.5 -120t-45.5 -151.5l-22 -129q-4 -29 -6 -52.5t-2 -45.5zM381 1380q39 41 87 69t105 28q47 0 80 -17.5t72 -42.5q37 -25 67.5 -37t63.5 -12q35 0 66.5 17.5t66.5 46.5l45 -62 q-39 -41 -87 -68.5t-105 -27.5q-47 0 -80 17.5t-72 41.5q-37 25 -67.5 37t-63.5 12q-35 0 -66.5 -17t-66.5 -46z" />
<glyph unicode="&#xe4;" d="M127 383q0 125 29.5 249t91 224t155 162.5t222.5 62.5q127 0 207.5 -55t113.5 -154h6l31 185h115l-176 -1057h-115l41 244h-6q-61 -121 -148.5 -195t-226.5 -74q-166 0 -253 107.5t-87 300.5zM242 373q0 -129 62.5 -212t195.5 -83q66 0 127 24.5t114 77.5q47 49 87 118 t55 155l45 264q8 53 -5.5 101t-48 84t-91 56.5t-130.5 20.5q-80 0 -144.5 -28.5t-112.5 -79t-78.5 -120t-45.5 -151.5l-22 -129q-4 -29 -6 -52.5t-2 -45.5zM424 1352q0 18 6 41q8 35 29.5 53t68.5 18t66.5 -18.5t19.5 -40.5q0 -20 -6 -41q-8 -35 -29.5 -53.5t-68.5 -18.5 t-66.5 18.5t-19.5 41.5zM801 1352q0 18 6 41q8 35 29.5 53t68.5 18t66.5 -18.5t19.5 -40.5q0 -20 -6 -41q-8 -35 -29.5 -53.5t-68.5 -18.5t-66.5 18.5t-19.5 41.5z" />
<glyph unicode="&#xe5;" d="M127 383q0 125 29.5 249t91 224t155 162.5t222.5 62.5q127 0 207.5 -55t113.5 -154h6l31 185h115l-176 -1057h-115l41 244h-6q-61 -121 -148.5 -195t-226.5 -74q-166 0 -253 107.5t-87 300.5zM242 373q0 -129 62.5 -212t195.5 -83q66 0 127 24.5t114 77.5q47 49 87 118 t55 155l45 264q8 53 -5.5 101t-48 84t-91 56.5t-130.5 20.5q-80 0 -144.5 -28.5t-112.5 -79t-78.5 -120t-45.5 -151.5l-22 -129q-4 -29 -6 -52.5t-2 -45.5zM496 1384q0 51 19.5 96.5t53 78t77.5 51t95 18.5q86 0 137.5 -51t51.5 -133q0 -53 -19.5 -97t-53.5 -77t-78 -51.5 t-95 -18.5q-86 0 -137 51.5t-51 132.5zM580 1370q0 -45 29.5 -70.5t82.5 -25.5q59 0 97 31.5t49 91.5q8 39 8 61q0 45 -30 70.5t-83 25.5q-59 0 -97 -31.5t-48 -90.5q-8 -39 -8 -62z" />
<glyph unicode="&#xe6;" d="M4 217q-2 166 108.5 251t313.5 95l141 8l25 148q4 27 6 49.5t2 38.5q0 98 -44 142t-124 44q-88 0 -144.5 -44t-103.5 -122l-71 50q47 86 128 145t197 59q125 0 182.5 -63.5t55.5 -157.5h8q102 221 301 221q104 0 166.5 -62.5t62.5 -168.5q0 -74 -28.5 -137.5t-94 -110.5 t-171 -75.5t-261.5 -32.5l-6 -39q-6 -37 -9 -72t-3 -64q0 -129 45 -190t127 -61q86 0 142.5 57t101.5 149l82 -41q-23 -49 -54.5 -96t-72.5 -83t-92.5 -57.5t-112.5 -21.5q-109 0 -176.5 69t-73.5 202h-10q-33 -125 -106.5 -198t-198.5 -73q-109 0 -173.5 62.5t-64.5 179.5z M104 211q0 -70 41 -109t119 -39q51 0 95 19.5t78 54.5t56.5 81t30.5 99l29 172l-125 -6q-70 -4 -124 -14t-93 -33.5t-63.5 -60.5t-34.5 -94q-6 -29 -7.5 -44.5t-1.5 -25.5zM672 573q240 6 342 78t102 195q0 70 -36.5 108.5t-102.5 38.5q-57 0 -107.5 -28.5t-88.5 -79.5 t-64.5 -122t-38.5 -155z" />
<glyph unicode="&#xe7;" d="M160 418q0 154 41 276.5t113.5 208.5t169.5 132t210 46q152 0 238 -70.5t112 -174.5l-98 -37q-29 98 -95.5 140t-168.5 42q-152 0 -251 -97.5t-128 -275.5l-18 -114q-6 -35 -8.5 -56.5t-2.5 -46.5q0 -147 74 -231t213 -84q47 0 91 12t89 43t92.5 83t100.5 130l84 -47 q-90 -147 -192.5 -230t-250.5 -90h-6l-43 -112l4 -4q18 4 38 5t32 1q57 0 89 -30t32 -87q0 -84 -62.5 -127t-154.5 -43q-72 0 -117 23.5t-65 52.5l61 61q18 -25 47 -40t74 -15q53 0 86 23.5t33 64.5q0 27 -22.5 50.5t-94.5 31.5l-68 6l54 142q-164 18 -248 138t-84 300z" />
<glyph unicode="&#xe8;" d="M158 430q0 139 41 258t115.5 207t178 137t228.5 49q156 0 251 -70.5t95 -201.5q0 -53 -25.5 -112.5t-107.5 -110.5t-238.5 -88t-416.5 -43q-2 -16 -2.5 -30.5t-0.5 -18.5q0 -68 13.5 -127.5t47.5 -105.5t91 -72.5t145 -26.5q123 0 209 63.5t166 194.5l84 -51 q-88 -154 -198.5 -230t-270.5 -76q-197 0 -301 114t-104 341zM287 539q213 6 343 30.5t201.5 62.5t95 83t23.5 90q0 76 -55 128t-186 52q-162 0 -274.5 -105.5t-141.5 -304.5zM579 1538l109 43l133 -342l-76 -31z" />
<glyph unicode="&#xe9;" d="M158 430q0 139 41 258t115.5 207t178 137t228.5 49q156 0 251 -70.5t95 -201.5q0 -53 -25.5 -112.5t-107.5 -110.5t-238.5 -88t-416.5 -43q-2 -16 -2.5 -30.5t-0.5 -18.5q0 -68 13.5 -127.5t47.5 -105.5t91 -72.5t145 -26.5q123 0 209 63.5t166 194.5l84 -51 q-88 -154 -198.5 -230t-270.5 -76q-197 0 -301 114t-104 341zM287 539q213 6 343 30.5t201.5 62.5t95 83t23.5 90q0 76 -55 128t-186 52q-162 0 -274.5 -105.5t-141.5 -304.5zM667 1251l244 330l100 -59l-274 -314z" />
<glyph unicode="&#xea;" d="M158 430q0 139 41 258t115.5 207t178 137t228.5 49q156 0 251 -70.5t95 -201.5q0 -53 -25.5 -112.5t-107.5 -110.5t-238.5 -88t-416.5 -43q-2 -16 -2.5 -30.5t-0.5 -18.5q0 -68 13.5 -127.5t47.5 -105.5t91 -72.5t145 -26.5q123 0 209 63.5t166 194.5l84 -51 q-88 -154 -198.5 -230t-270.5 -76q-197 0 -301 114t-104 341zM287 539q213 6 343 30.5t201.5 62.5t95 83t23.5 90q0 76 -55 128t-186 52q-162 0 -274.5 -105.5t-141.5 -304.5zM440 1276l285 280h143l193 -290l-70 -41l-203 248l-289 -248z" />
<glyph unicode="&#xeb;" d="M158 430q0 139 41 258t115.5 207t178 137t228.5 49q156 0 251 -70.5t95 -201.5q0 -53 -25.5 -112.5t-107.5 -110.5t-238.5 -88t-416.5 -43q-2 -16 -2.5 -30.5t-0.5 -18.5q0 -68 13.5 -127.5t47.5 -105.5t91 -72.5t145 -26.5q123 0 209 63.5t166 194.5l84 -51 q-88 -154 -198.5 -230t-270.5 -76q-197 0 -301 114t-104 341zM287 539q213 6 343 30.5t201.5 62.5t95 83t23.5 90q0 76 -55 128t-186 52q-162 0 -274.5 -105.5t-141.5 -304.5zM483 1352q0 18 6 41q8 35 29.5 53t68.5 18t66.5 -18.5t19.5 -40.5q0 -20 -6 -41 q-8 -35 -29.5 -53.5t-68.5 -18.5t-66.5 18.5t-19.5 41.5zM860 1352q0 18 6 41q8 35 29.5 53t68.5 18t66.5 -18.5t19.5 -40.5q0 -20 -6 -41q-8 -35 -29.5 -53.5t-68.5 -18.5t-66.5 18.5t-19.5 41.5z" />
<glyph unicode="&#xec;" d="M176 958l14 99h517l-187 -965l31 -12l461 354l61 -74l-303 -233q-53 -41 -89 -69.5t-64.5 -47t-51 -27t-47.5 -8.5q-53 0 -81.5 29t-28.5 74q0 14 3 31.5t7 46.5l155 802h-397zM510 1538l109 43l133 -342l-76 -31z" />
<glyph unicode="&#xed;" d="M176 958l14 99h517l-187 -965l31 -12l461 354l61 -74l-303 -233q-53 -41 -89 -69.5t-64.5 -47t-51 -27t-47.5 -8.5q-53 0 -81.5 29t-28.5 74q0 14 3 31.5t7 46.5l155 802h-397zM598 1251l244 330l100 -59l-274 -314z" />
<glyph unicode="&#xee;" d="M176 958l14 99h517l-187 -965l31 -12l461 354l61 -74l-303 -233q-53 -41 -89 -69.5t-64.5 -47t-51 -27t-47.5 -8.5q-53 0 -81.5 29t-28.5 74q0 14 3 31.5t7 46.5l155 802h-397zM371 1276l285 280h143l193 -290l-70 -41l-203 248l-289 -248z" />
<glyph unicode="&#xef;" d="M176 958l14 99h517l-187 -965l31 -12l461 354l61 -74l-303 -233q-53 -41 -89 -69.5t-64.5 -47t-51 -27t-47.5 -8.5q-53 0 -81.5 29t-28.5 74q0 14 3 31.5t7 46.5l155 802h-397zM414 1352q0 18 6 41q8 35 29.5 53t68.5 18t66.5 -18.5t19.5 -40.5q0 -20 -6 -41 q-8 -35 -29.5 -53.5t-68.5 -18.5t-66.5 18.5t-19.5 41.5zM791 1352q0 18 6 41q8 35 29.5 53t68.5 18t66.5 -18.5t19.5 -40.5q0 -20 -6 -41q-8 -35 -29.5 -53.5t-68.5 -18.5t-66.5 18.5t-19.5 41.5z" />
<glyph unicode="&#xf0;" d="M137 391q0 139 39 258t108.5 205t165 134t207.5 48q104 0 186.5 -50t119.5 -136l8 4q-20 111 -73.5 218.5t-133.5 203.5l-221 -139l-47 67l211 133q-51 51 -109.5 95.5t-124.5 83.5h182q31 -23 68 -53.5t74 -69.5l223 143l47 -70l-215 -135q45 -55 87 -121.5t73.5 -147.5 t50 -175t18.5 -205q0 -166 -38.5 -297t-110.5 -222t-175.5 -139.5t-232.5 -48.5q-88 0 -159.5 30t-121.5 84t-78 131t-28 171zM254 365q0 -141 79 -215t210 -74q147 0 253.5 91t139.5 269l18 103q6 35 7.5 61.5t1.5 46.5q0 141 -79 215t-210 74q-147 0 -254 -91t-139 -270 l-19 -102q-6 -35 -7 -61.5t-1 -46.5z" />
<glyph unicode="&#xf1;" d="M143 0l176 1057h115l-41 -244h8q59 125 144.5 196.5t216.5 71.5q135 0 210 -78.5t75 -220.5q0 -29 -3.5 -62.5t-9.5 -66.5l-108 -653h-115l107 641q6 35 8 65.5t2 53.5q0 106 -50.5 162.5t-150.5 56.5q-141 0 -244 -121q-31 -37 -69.5 -99.5t-55.5 -152.5l-100 -606h-115 zM426 1380q39 41 87 69t105 28q47 0 80 -17.5t72 -42.5q37 -25 67.5 -37t63.5 -12q35 0 66.5 17.5t66.5 46.5l45 -62q-39 -41 -87 -68.5t-105 -27.5q-47 0 -80 17.5t-72 41.5q-37 25 -67.5 37t-63.5 12q-35 0 -66.5 -17t-66.5 -46z" />
<glyph unicode="&#xf2;" d="M145 401q0 158 41 284t113 214t171 135t216 47q98 0 173 -31.5t124 -88t74.5 -135t25.5 -171.5q0 -158 -41 -283.5t-112.5 -213.5t-170.5 -135.5t-216 -47.5q-98 0 -173 32t-124 88.5t-75 135t-26 170.5zM260 375q0 -141 74 -220t217 -79q162 0 261 102.5t128 282.5 l18 114q6 35 8.5 57.5t2.5 49.5q0 141 -74 220t-217 79q-162 0 -261.5 -102.5t-127.5 -282.5l-19 -115q-6 -35 -8 -57.5t-2 -48.5zM559 1538l109 43l133 -342l-76 -31z" />
<glyph unicode="&#xf3;" d="M145 401q0 158 41 284t113 214t171 135t216 47q98 0 173 -31.5t124 -88t74.5 -135t25.5 -171.5q0 -158 -41 -283.5t-112.5 -213.5t-170.5 -135.5t-216 -47.5q-98 0 -173 32t-124 88.5t-75 135t-26 170.5zM260 375q0 -141 74 -220t217 -79q162 0 261 102.5t128 282.5 l18 114q6 35 8.5 57.5t2.5 49.5q0 141 -74 220t-217 79q-162 0 -261.5 -102.5t-127.5 -282.5l-19 -115q-6 -35 -8 -57.5t-2 -48.5zM647 1251l244 330l100 -59l-274 -314z" />
<glyph unicode="&#xf4;" d="M145 401q0 158 41 284t113 214t171 135t216 47q98 0 173 -31.5t124 -88t74.5 -135t25.5 -171.5q0 -158 -41 -283.5t-112.5 -213.5t-170.5 -135.5t-216 -47.5q-98 0 -173 32t-124 88.5t-75 135t-26 170.5zM260 375q0 -141 74 -220t217 -79q162 0 261 102.5t128 282.5 l18 114q6 35 8.5 57.5t2.5 49.5q0 141 -74 220t-217 79q-162 0 -261.5 -102.5t-127.5 -282.5l-19 -115q-6 -35 -8 -57.5t-2 -48.5zM420 1276l285 280h143l193 -290l-70 -41l-203 248l-289 -248z" />
<glyph unicode="&#xf5;" d="M145 401q0 158 41 284t113 214t171 135t216 47q98 0 173 -31.5t124 -88t74.5 -135t25.5 -171.5q0 -158 -41 -283.5t-112.5 -213.5t-170.5 -135.5t-216 -47.5q-98 0 -173 32t-124 88.5t-75 135t-26 170.5zM260 375q0 -141 74 -220t217 -79q162 0 261 102.5t128 282.5 l18 114q6 35 8.5 57.5t2.5 49.5q0 141 -74 220t-217 79q-162 0 -261.5 -102.5t-127.5 -282.5l-19 -115q-6 -35 -8 -57.5t-2 -48.5zM420 1380q39 41 87 69t105 28q47 0 80 -17.5t72 -42.5q37 -25 67.5 -37t63.5 -12q35 0 66.5 17.5t66.5 46.5l45 -62q-39 -41 -87 -68.5 t-105 -27.5q-47 0 -80 17.5t-72 41.5q-37 25 -67.5 37t-63.5 12q-35 0 -66.5 -17t-66.5 -46z" />
<glyph unicode="&#xf6;" d="M145 401q0 158 41 284t113 214t171 135t216 47q98 0 173 -31.5t124 -88t74.5 -135t25.5 -171.5q0 -158 -41 -283.5t-112.5 -213.5t-170.5 -135.5t-216 -47.5q-98 0 -173 32t-124 88.5t-75 135t-26 170.5zM260 375q0 -141 74 -220t217 -79q162 0 261 102.5t128 282.5 l18 114q6 35 8.5 57.5t2.5 49.5q0 141 -74 220t-217 79q-162 0 -261.5 -102.5t-127.5 -282.5l-19 -115q-6 -35 -8 -57.5t-2 -48.5zM463 1352q0 18 6 41q8 35 29.5 53t68.5 18t66.5 -18.5t19.5 -40.5q0 -20 -6 -41q-8 -35 -29.5 -53.5t-68.5 -18.5t-66.5 18.5t-19.5 41.5z M840 1352q0 18 6 41q8 35 29.5 53t68.5 18t66.5 -18.5t19.5 -40.5q0 -20 -6 -41q-8 -35 -29.5 -53.5t-68.5 -18.5t-66.5 18.5t-19.5 41.5z" />
<glyph unicode="&#xf7;" d="M137 575l17 99h968l-16 -99h-969zM457 197q0 12 1 23t3 22q8 39 34.5 60.5t79.5 21.5t74 -19.5t21 -48.5q0 -12 -1 -23.5t-3 -21.5q-8 -39 -35 -60.5t-80 -21.5t-73.5 19.5t-20.5 48.5zM590 993q0 12 1 23.5t3 21.5q8 39 34.5 60.5t80.5 21.5q53 0 73.5 -19.5t20.5 -47.5 q0 -12 -1 -23.5t-3 -21.5q-8 -39 -35 -60.5t-80 -21.5t-73.5 19.5t-20.5 47.5z" />
<glyph unicode="&#xf8;" d="M37 -10l166 172q-57 102 -58 239q0 158 41 284t113 214t171 135t216 47q98 0 170 -31.5t123 -84.5l149 155l64 -53l-166 -172q57 -102 57 -240q0 -158 -41 -283.5t-112.5 -213.5t-171 -135.5t-215.5 -47.5q-98 0 -170 32t-123 85l-150 -155zM260 375q0 -37 5 -71t20 -62 l620 649q-37 43 -93 66.5t-134 23.5q-162 0 -261.5 -102.5t-127.5 -282.5l-19 -115q-6 -35 -8 -57.5t-2 -48.5zM324 166q77 -90 227 -90q162 0 261 102.5t128 282.5l18 114q6 35 8.5 57.5t2.5 49.5q0 37 -5.5 70.5t-19.5 62.5z" />
<glyph unicode="&#xf9;" d="M182 274q0 63 13 129l108 654h115l-107 -641q-6 -35 -8 -66t-2 -53q0 -106 50 -162.5t151 -56.5q72 0 133 30.5t110 90.5q31 37 70 99t55 153l101 606h114l-176 -1057h-114l41 244h-9q-59 -125 -144 -197t-216 -72q-135 0 -210 79t-75 220zM559 1538l109 43l133 -342 l-76 -31z" />
<glyph unicode="&#xfa;" d="M182 274q0 63 13 129l108 654h115l-107 -641q-6 -35 -8 -66t-2 -53q0 -106 50 -162.5t151 -56.5q72 0 133 30.5t110 90.5q31 37 70 99t55 153l101 606h114l-176 -1057h-114l41 244h-9q-59 -125 -144 -197t-216 -72q-135 0 -210 79t-75 220zM647 1251l244 330l100 -59 l-274 -314z" />
<glyph unicode="&#xfb;" d="M182 274q0 63 13 129l108 654h115l-107 -641q-6 -35 -8 -66t-2 -53q0 -106 50 -162.5t151 -56.5q72 0 133 30.5t110 90.5q31 37 70 99t55 153l101 606h114l-176 -1057h-114l41 244h-9q-59 -125 -144 -197t-216 -72q-135 0 -210 79t-75 220zM420 1276l285 280h143 l193 -290l-70 -41l-203 248l-289 -248z" />
<glyph unicode="&#xfc;" d="M182 274q0 63 13 129l108 654h115l-107 -641q-6 -35 -8 -66t-2 -53q0 -106 50 -162.5t151 -56.5q72 0 133 30.5t110 90.5q31 37 70 99t55 153l101 606h114l-176 -1057h-114l41 244h-9q-59 -125 -144 -197t-216 -72q-135 0 -210 79t-75 220zM463 1352q0 18 6 41 q8 35 29.5 53t68.5 18t66.5 -18.5t19.5 -40.5q0 -20 -6 -41q-8 -35 -29.5 -53.5t-68.5 -18.5t-66.5 18.5t-19.5 41.5zM840 1352q0 18 6 41q8 35 29.5 53t68.5 18t66.5 -18.5t19.5 -40.5q0 -20 -6 -41q-8 -35 -29.5 -53.5t-68.5 -18.5t-66.5 18.5t-19.5 41.5z" />
<glyph unicode="&#xfd;" d="M63 -293l82 78q41 -55 109 -86t170 -31q154 0 249 79t124 261l43 254h-6q-59 -123 -145.5 -195.5t-217.5 -72.5q-135 0 -210 79t-75 220q0 29 3.5 58.5t7.5 66.5l106 639h115l-105 -629q-6 -33 -8 -61.5t-2 -57.5q0 -100 51.5 -156.5t151.5 -56.5q145 0 244 121 q12 14 29.5 38t36 56.5t33.5 71.5t23 84l99 590h114l-178 -1071q-37 -221 -166.5 -320.5t-324.5 -99.5q-123 0 -210 37t-143 104zM649 1251l244 330l100 -59l-274 -314z" />
<glyph unicode="&#xfe;" d="M61 -410l322 1926h115l-117 -703h6q31 59 66.5 108.5t81 85t101.5 55t126 19.5q166 0 253 -107.5t87 -299.5q0 -125 -30 -250t-91 -224.5t-154.5 -162t-222.5 -62.5q-127 0 -208 55.5t-113 153.5h-7l-100 -594h-115zM301 340q-10 -53 4 -101.5t49 -84t91 -56t130 -20.5 q80 0 144.5 28.5t112 79t79 120t45.5 151.5l23 129q4 29 6 52.5t2 45.5q0 129 -62.5 212t-195.5 83q-66 0 -127 -24.5t-115 -77.5q-47 -49 -87 -118t-54 -155z" />
<glyph unicode="&#xff;" d="M63 -293l82 78q41 -55 109 -86t170 -31q154 0 249 79t124 261l43 254h-6q-59 -123 -145.5 -195.5t-217.5 -72.5q-135 0 -210 79t-75 220q0 29 3.5 58.5t7.5 66.5l106 639h115l-105 -629q-6 -33 -8 -61.5t-2 -57.5q0 -100 51.5 -156.5t151.5 -56.5q145 0 244 121 q12 14 29.5 38t36 56.5t33.5 71.5t23 84l99 590h114l-178 -1071q-37 -221 -166.5 -320.5t-324.5 -99.5q-123 0 -210 37t-143 104zM465 1352q0 18 6 41q8 35 29.5 53t68.5 18t66.5 -18.5t19.5 -40.5q0 -20 -6 -41q-8 -35 -29.5 -53.5t-68.5 -18.5t-66.5 18.5t-19.5 41.5z M842 1352q0 18 6 41q8 35 29.5 53t68.5 18t66.5 -18.5t19.5 -40.5q0 -20 -6 -41q-8 -35 -29.5 -53.5t-68.5 -18.5t-66.5 18.5t-19.5 41.5z" />
<glyph unicode="&#x152;" d="M100 522q0 203 45 371t130 286.5t206 184.5t275 66h526l-16 -103h-369l-92 -551h342l-17 -102h-342l-96 -572h373l-18 -102h-504q-223 0 -333 131t-110 391zM217 492q0 -199 86 -294.5t256 -95.5h16l205 1225h-41q-94 0 -176 -37t-144.5 -104.5t-105.5 -162.5t-59 -212 l-23 -170q-6 -35 -10 -75t-4 -74z" />
<glyph unicode="&#x153;" d="M45 352q0 143 26.5 274.5t79 233t128 161.5t172.5 60q109 0 164 -72.5t59 -179.5h8q53 129 135 190.5t187 61.5q104 0 166.5 -62.5t62.5 -168.5q0 -74 -28.5 -137.5t-94.5 -110.5t-172.5 -75.5t-261.5 -32.5l-6 -39q-6 -37 -9.5 -72t-3.5 -64q0 -129 46.5 -190t125.5 -61 q86 0 143.5 57t100.5 149l82 -41q-25 -53 -56.5 -99t-71.5 -82t-90.5 -56.5t-111.5 -20.5q-98 0 -163.5 62.5t-73.5 187.5h-8q-35 -117 -112 -183.5t-181 -66.5q-129 0 -185.5 100.5t-56.5 276.5zM143 307q0 -127 42 -185.5t116 -58.5q90 0 159.5 89.5t102.5 287.5l29 174 q6 41 8 76t2 60q0 127 -42 185t-116 58q-90 0 -159.5 -89t-102.5 -288l-28 -174q-6 -41 -8.5 -75.5t-2.5 -59.5zM690 573q240 6 341.5 78t101.5 195q0 70 -36 108.5t-104 38.5q-57 0 -107 -28.5t-88 -79.5t-64.5 -122t-39.5 -155z" />
<glyph unicode="&#x178;" d="M193 1430h129l309 -734h6l555 734h143l-651 -846l-98 -584h-121l96 575zM522 1700q0 18 6 41q8 35 29.5 53t68.5 18t66.5 -18t19.5 -41q0 -20 -6 -41q-8 -35 -29.5 -53.5t-68.5 -18.5t-66.5 18.5t-19.5 41.5zM899 1700q0 18 6 41q8 35 29.5 53t68.5 18t66.5 -18t19.5 -41 q0 -20 -6 -41q-8 -35 -29.5 -53.5t-68.5 -18.5t-66.5 18.5t-19.5 41.5z" />
<glyph unicode="&#x2c6;" d="M340 1276l285 280h143l193 -290l-70 -41l-203 248l-289 -248z" />
<glyph unicode="&#x2dc;" d="M340 1380q39 41 87 69t105 28q47 0 80 -17.5t72 -42.5q37 -25 67.5 -37t63.5 -12q35 0 66.5 17.5t66.5 46.5l45 -62q-39 -41 -87 -68.5t-105 -27.5q-47 0 -80 17.5t-72 41.5q-37 25 -67.5 37t-63.5 12q-35 0 -66.5 -17t-66.5 -46z" />
<glyph unicode="&#x2000;" horiz-adv-x="988" />
<glyph unicode="&#x2001;" horiz-adv-x="1976" />
<glyph unicode="&#x2002;" horiz-adv-x="988" />
<glyph unicode="&#x2003;" horiz-adv-x="1976" />
<glyph unicode="&#x2004;" horiz-adv-x="658" />
<glyph unicode="&#x2005;" horiz-adv-x="494" />
<glyph unicode="&#x2006;" horiz-adv-x="329" />
<glyph unicode="&#x2007;" horiz-adv-x="329" />
<glyph unicode="&#x2008;" horiz-adv-x="247" />
<glyph unicode="&#x2009;" horiz-adv-x="395" />
<glyph unicode="&#x200a;" horiz-adv-x="109" />
<glyph unicode="&#x2010;" d="M336 563l20 119h568l-21 -119h-567z" />
<glyph unicode="&#x2011;" d="M336 563l20 119h568l-21 -119h-567z" />
<glyph unicode="&#x2012;" d="M336 563l20 119h568l-21 -119h-567z" />
<glyph unicode="&#x2013;" d="M131 571l19 105h976l-18 -105h-977z" />
<glyph unicode="&#x2014;" d="M10 571l19 105h1220l-18 -105h-1221z" />
<glyph unicode="&#x2018;" d="M516 971l293 545h96l-198 -545h-191z" />
<glyph unicode="&#x2019;" d="M565 971l199 545h192l-294 -545h-97z" />
<glyph unicode="&#x201a;" d="M299 -313l199 544h192l-293 -544h-98z" />
<glyph unicode="&#x201c;" d="M309 971l293 545h96l-198 -545h-191zM739 971l293 545h96l-198 -545h-191z" />
<glyph unicode="&#x201d;" d="M358 971l199 545h192l-294 -545h-97zM788 971l199 545h192l-294 -545h-97z" />
<glyph unicode="&#x201e;" d="M117 -313l199 544h192l-293 -544h-98zM545 -313l199 544h192l-293 -544h-98z" />
<glyph unicode="&#x2022;" d="M406 559q0 10 2 26.5t10 61.5q14 84 71.5 138.5t178.5 54.5q104 0 146 -43t42 -109q0 -10 -2 -26.5t-10 -61.5q-14 -84 -71.5 -138t-178.5 -54q-104 0 -146 43t-42 108z" />
<glyph unicode="&#x2026;" d="M57 61q0 10 2 24.5t7 35.5q6 37 33.5 59.5t78.5 22.5q53 0 73.5 -19.5t20.5 -50.5q0 -10 -2 -24.5t-6 -34.5q-6 -37 -33.5 -59.5t-78.5 -22.5q-53 0 -74 19.5t-21 49.5zM436 61q0 10 2 24.5t6 35.5q6 37 34 59.5t79 22.5q53 0 73.5 -19.5t20.5 -50.5q0 -10 -2 -24.5 t-6 -34.5q-6 -37 -34 -59.5t-79 -22.5q-53 0 -73.5 19.5t-20.5 49.5zM815 61q0 10 2 24.5t6 35.5q6 37 34 59.5t79 22.5q53 0 73.5 -19.5t20.5 -50.5q0 -10 -2 -24.5t-6 -34.5q-6 -37 -34 -59.5t-79 -22.5q-53 0 -73.5 19.5t-20.5 49.5z" />
<glyph unicode="&#x202f;" horiz-adv-x="395" />
<glyph unicode="&#x2039;" d="M342 496l18 112l486 363l24 -88l-399 -340l287 -336l-51 -76z" />
<glyph unicode="&#x203a;" d="M367 219l399 340l-287 338l51 74l365 -363l-18 -112l-486 -365z" />
<glyph unicode="&#x205f;" horiz-adv-x="494" />
<glyph unicode="&#x20ac;" d="M180 475q0 190 38 366.5t116 312.5t195.5 218t275.5 82q90 0 154.5 -24.5t108.5 -67.5t71.5 -99.5t42.5 -117.5l-109 -35q-12 51 -32.5 95t-53.5 76t-79 49.5t-113 17.5q-156 0 -265.5 -114t-162.5 -312h477l-17 -97h-481q-2 -8 -3 -14t-3 -16q-6 -35 -13.5 -85.5 t-11.5 -72.5q-2 -10 -3 -19.5t-1 -19.5h477l-16 -96h-473v-39q0 -84 16.5 -153.5t52 -121t92 -79t138.5 -27.5q63 0 113.5 16.5t93.5 49t80 82t78 112.5l96 -49q-45 -76 -91 -134.5t-101.5 -99.5t-123 -62.5t-155.5 -21.5q-201 0 -304.5 126t-103.5 374z" />
<glyph unicode="&#x2122;" d="M170 1360l12 70h461l-12 -70h-191l-82 -494h-79l81 494h-190zM657 866l93 564h96l100 -304h4l201 304h98l-92 -564h-74l45 269l31 186h-6l-227 -336l-117 336h-6l-29 -186l-45 -269h-72z" />
<glyph unicode="&#x25fc;" horiz-adv-x="1085" d="M0 0v1085h1085v-1085h-1085z" />
<glyph unicode="&#xfb01;" d="M160 958l16 99h164l47 289q12 76 57 123t131 47h281l-16 -99h-326l-59 -360h637l-177 -1057h-114l160 958h-523l-159 -958h-115l160 958h-164zM995 1405q0 10 2 23.5t4 23.5q4 31 29 54.5t78 23.5t72.5 -19.5t19.5 -46.5q0 -10 -2 -23.5t-4 -23.5q-6 -31 -30 -54.5 t-77 -23.5t-72.5 20.5t-19.5 45.5z" />
<glyph unicode="&#xfb02;" d="M160 958l16 99h164l47 289q12 76 57 123t131 47h308l-17 -99h-352l-59 -360h354l-16 -99h-355l-159 -958h-115l160 958h-164zM801 0l252 1516h114l-252 -1516h-114z" />
</font>
</defs>
</svg>
